<svg width="24" height="18" viewBox="0 0 24 18" fill="none" xmlns="http://www.w3.org/2000/svg">
<path d="M20.4558 0C20.1047 0 19.7699 0.0510632 19.4498 0.171452C19.1308 0.29184 18.8587 0.462412 18.6197 0.693156C18.3807 0.913868 18.1895 1.19264 18.0454 1.51368C17.9014 1.83346 17.8286 2.20556 17.8286 2.62566C17.8286 3.14609 17.9641 3.63548 18.2271 4.07564C18.4901 4.52584 18.9215 4.86752 19.5045 5.09704L20.6608 5.54768C21.0518 5.7082 21.3235 5.87632 21.4675 6.06696C21.6115 6.25756 21.6824 6.48656 21.6824 6.76744C21.6824 7.17752 21.5393 7.49832 21.2683 7.7178C20.9973 7.93848 20.6042 8.04844 20.1022 8.04844C19.7832 8.04844 19.4719 8.00868 19.1529 7.92844C18.8419 7.84816 18.545 7.7274 18.274 7.57816C18.194 7.53804 18.1228 7.4978 18.0748 7.47776C18.0268 7.45768 17.9782 7.44836 17.9302 7.44836C17.8102 7.44836 17.7466 7.54756 17.7466 7.75696V8.26888C17.7466 8.35916 17.7634 8.45908 17.7954 8.54812C17.8285 8.64216 17.9165 8.73948 18.0435 8.82976C18.2515 8.98024 18.5625 9.11108 18.9615 9.23148C19.3605 9.35184 19.7751 9.41272 20.1901 9.41272C20.5971 9.41272 20.9718 9.34008 21.3308 9.1996C21.6738 9.0692 21.9706 8.892 22.2176 8.64116C22.4646 8.4004 22.6556 8.09928 22.7996 7.75944C22.9356 7.41956 23.0086 7.0286 23.0086 6.59844C23.0086 6.078 22.8884 5.60752 22.6414 5.19744C22.3944 4.78736 21.9781 4.4668 21.4031 4.23732L20.2702 3.78664C19.8472 3.61609 19.5532 3.42616 19.3932 3.23554C19.2332 3.04493 19.1529 2.80615 19.1529 2.52524C19.1529 2.11517 19.2809 1.8255 19.528 1.63614C19.775 1.44552 20.1355 1.35447 20.5905 1.35447C21.1575 1.35447 21.6688 1.48677 22.1238 1.74636C22.2598 1.82662 22.3626 1.86638 22.4266 1.86638C22.5466 1.86638 22.6102 1.75494 22.6102 1.54552V1.0728C22.6102 0.932344 22.5859 0.823596 22.5379 0.744592C22.4899 0.6543 22.4106 0.572572 22.2996 0.492312C22.2196 0.432116 22.1086 0.371257 21.9656 0.311063C21.8216 0.250868 21.6705 0.202019 21.5105 0.151857C21.3425 0.111728 21.175 0.0717356 20.991 0.0416384C20.8149 0.0115412 20.6318 0 20.4558 0ZM3.99389 0.0220438C3.55485 0.0220438 3.13874 0.0826692 2.74771 0.21309C2.35569 0.332225 2.02081 0.48318 1.7418 0.663764C1.62979 0.733992 1.55913 0.802984 1.51913 0.871956C1.47913 0.942184 1.46248 1.06414 1.46248 1.22466V1.71452C1.46248 1.9252 1.51845 2.02313 1.63046 2.02313C1.66246 2.02313 1.70337 2.0138 1.75938 1.99374C1.81438 1.97368 1.90873 1.93415 2.03674 1.86393C2.31575 1.72347 2.60505 1.61496 2.90007 1.52592C3.19508 1.43563 3.48243 1.39366 3.76144 1.39366C4.37648 1.39366 4.8073 1.54438 5.06231 1.85413C5.30931 2.16388 5.43731 2.69477 5.43731 3.45598V4.18832C5.11831 4.09804 4.81533 4.0156 4.5193 3.96544C4.22429 3.91528 3.94458 3.88706 3.67354 3.88706C2.8515 3.88706 2.20539 4.14796 1.71836 4.6684C1.23233 5.18884 0.991754 5.878 0.991754 6.72828C0.991754 7.5296 1.19061 8.1694 1.58163 8.65096C1.97265 9.13128 2.50934 9.37352 3.17938 9.37352C4.12144 9.37352 4.90218 8.9114 5.52522 7.98964C5.61322 8.2204 5.69427 8.41184 5.77328 8.5824C5.85328 8.74292 5.94941 8.90216 6.06039 9.05268C6.14042 9.14296 6.21968 9.19228 6.29869 9.19228C6.36269 9.19228 6.43568 9.16184 6.50768 9.10164L7.00967 8.6828C7.11367 8.58248 7.16202 8.4806 7.16202 8.38156C7.16202 8.31132 7.14538 8.23156 7.10538 8.15132C6.99338 7.89048 6.91447 7.65192 6.85146 7.4312C6.79546 7.21052 6.76355 6.9096 6.76355 6.53968H6.74599V3.29432C6.74599 2.19327 6.52387 1.37326 6.08384 0.832768C5.63783 0.293526 4.94394 0.0220438 3.99389 0.0220438ZM7.70503 0.262076C7.57703 0.262076 7.5136 0.353838 7.5136 0.514356C7.5136 0.584584 7.53789 0.7142 7.58589 0.913592L9.46099 8.65096C9.50899 8.8416 9.56496 8.9802 9.62896 9.0404C9.69296 9.11064 9.78871 9.14084 9.93172 9.14084H10.6173C10.7613 9.14084 10.8736 9.11064 10.9376 9.0404C11.0016 8.9702 11.05 8.84056 11.09 8.64116L12.3186 2.19458L13.555 8.65096C13.587 8.85164 13.6433 8.98244 13.7073 9.05268C13.7713 9.12288 13.8747 9.15308 14.0257 9.15308H14.7132C14.8493 9.15308 14.952 9.11284 15.016 9.05268C15.08 8.99248 15.136 8.86016 15.184 8.66076L17.1079 0.923392C17.1399 0.813036 17.1546 0.733756 17.1626 0.67356C17.1706 0.613368 17.1802 0.562068 17.1802 0.511908C17.1802 0.341356 17.107 0.262076 16.979 0.262076H16.2368C16.0927 0.262076 15.9902 0.302304 15.9262 0.362498C15.8702 0.422692 15.814 0.552544 15.766 0.75194L14.3851 7.45816L13.1233 0.75194C13.0913 0.561324 13.0369 0.422692 12.9729 0.362498C12.9089 0.292272 12.8036 0.262076 12.6526 0.262076H12.0139C11.8699 0.262076 11.7595 0.302304 11.6955 0.362498C11.6315 0.422692 11.5831 0.552544 11.5431 0.75194L10.3009 7.37976L8.95901 0.754388C8.91101 0.563772 8.86285 0.422692 8.79885 0.362498C8.74282 0.292272 8.63927 0.262076 8.48826 0.262076H7.70503ZM3.97043 5.07744C4.21744 5.07744 4.46547 5.09852 4.72048 5.13864C4.97549 5.1788 5.22192 5.23744 5.45293 5.30768V5.72896C5.45293 6.0688 5.42087 6.35892 5.37287 6.59844C5.32487 6.83924 5.23034 7.04956 5.10333 7.24016C4.8873 7.53988 4.63248 7.75904 4.34547 7.87944C4.05843 7.99984 3.78618 8.06068 3.52314 8.06068C3.15613 8.06068 2.87622 7.9404 2.68521 7.69084C2.4852 7.45008 2.39027 7.10056 2.39027 6.63028C2.39027 6.12992 2.5179 5.75 2.78092 5.47912C3.04393 5.20824 3.43539 5.07744 3.97043 5.07744ZM22.2371 11.2228C21.3969 11.2376 20.405 11.473 19.6549 12.1339C19.4239 12.3446 19.4634 12.6247 19.7194 12.5846C20.5734 12.4542 22.4588 12.1739 22.7938 12.7144C23.1288 13.2448 22.4174 15.4785 22.0984 16.4692C22.0024 16.7689 22.2116 16.8873 22.4266 16.6578C23.8306 15.1768 24.1961 12.0844 23.9091 11.6342C23.7656 11.4142 23.0773 11.2078 22.2371 11.2228ZM0.175302 11.8204C-0.000535861 11.8476 -0.0790717 12.1152 0.106939 12.325C3.23613 15.8689 7.37949 18 11.9767 18C15.2579 18 19.0718 16.7086 21.698 14.277C22.129 13.8758 21.7542 13.2645 21.3152 13.5153C18.37 15.0766 15.1702 15.8397 12.2561 15.8397C7.93783 15.8397 3.76263 14.347 0.378439 11.8841C0.304685 11.8289 0.233915 11.8113 0.175302 11.8204Z" fill="#454545"/>
</svg>
