<svg width="75" height="45" viewBox="0 0 75 45" fill="none" xmlns="http://www.w3.org/2000/svg">
<mask id="path-1-inside-1_85_35" fill="white">
<path d="M63.9242 0C62.8273 0 61.7808 0.127658 60.7807 0.42863C59.7838 0.729601 58.9335 1.15603 58.1866 1.73289C57.4396 2.28467 56.8421 2.9816 56.392 3.78419C55.942 4.58364 55.7145 5.51389 55.7145 6.56416C55.7145 7.86523 56.1378 9.08871 56.9597 10.1891C57.7816 11.3146 59.1296 12.1688 60.9516 12.7426L64.5651 13.8692C65.787 14.2705 66.636 14.6908 67.086 15.1674C67.536 15.6439 67.7574 16.2164 67.7574 16.9186C67.7574 17.9438 67.3103 18.7458 66.4634 19.2945C65.6165 19.8462 64.3882 20.1211 62.8194 20.1211C61.8225 20.1211 60.8498 20.0217 59.8529 19.8211C58.881 19.6204 57.9531 19.3185 57.1062 18.9454C56.8562 18.8451 56.6336 18.7445 56.4836 18.6944C56.3336 18.6442 56.1819 18.6209 56.0319 18.6209C55.6569 18.6209 55.4581 18.8689 55.4581 19.3924V20.6722C55.4581 20.8979 55.5107 21.1477 55.6107 21.3703C55.7139 21.6054 55.989 21.8487 56.3859 22.0744C57.036 22.4506 58.0078 22.7777 59.2547 23.0787C60.5017 23.3796 61.7971 23.5318 63.0941 23.5318C64.366 23.5318 65.5368 23.3502 66.6587 22.999C67.7307 22.673 68.658 22.23 69.4299 21.6029C70.2018 21.001 70.7988 20.2482 71.2488 19.3986C71.6738 18.5489 71.9019 17.5715 71.9019 16.4961C71.9019 15.195 71.5263 14.0188 70.7544 12.9936C69.9825 11.9684 68.6815 11.167 66.8846 10.5933L63.3443 9.46659C62.0224 9.04022 61.1037 8.56539 60.6037 8.08886C60.1037 7.61232 59.8529 7.01537 59.8529 6.3131C59.8529 5.28792 60.2529 4.56376 61.0249 4.09035C61.7968 3.61381 62.9234 3.38617 64.3454 3.38617C66.1173 3.38617 67.7149 3.71693 69.1369 4.3659C69.5619 4.56655 69.883 4.66594 70.083 4.66594C70.458 4.66594 70.6567 4.38736 70.6567 3.86379V2.682C70.6567 2.33086 70.5809 2.05899 70.4309 1.86148C70.2809 1.63575 70.0331 1.43143 69.6862 1.23078C69.4362 1.08029 69.0894 0.928143 68.6425 0.777657C68.1924 0.627171 67.7203 0.505048 67.2203 0.379643C66.6952 0.27932 66.1717 0.179339 65.5967 0.104096C65.0466 0.0288529 64.4742 0 63.9242 0ZM12.4809 0.0551095C11.1089 0.0551095 9.80855 0.206673 8.5866 0.532726C7.36153 0.830562 6.31504 1.20795 5.44311 1.65941C5.09309 1.83498 4.87228 2.00746 4.74727 2.17989C4.62227 2.35546 4.57026 2.66035 4.57026 3.06164V4.2863C4.57026 4.813 4.74517 5.05783 5.09519 5.05783C5.1952 5.05783 5.32304 5.03451 5.49805 4.98435C5.66993 4.93419 5.96477 4.83538 6.3648 4.65982C7.23672 4.30868 8.14078 4.0374 9.0627 3.8148C9.98463 3.58908 10.8826 3.48415 11.7545 3.48415C13.6765 3.48415 15.0228 3.86095 15.8197 4.63532C16.5916 5.4097 16.9916 6.73693 16.9916 8.63995V10.4708C15.9947 10.2451 15.0479 10.039 14.1228 9.91359C13.2009 9.78819 12.3268 9.71765 11.4798 9.71765C8.91094 9.71765 6.89183 10.3699 5.36987 11.671C3.85103 12.9721 3.09923 14.695 3.09923 16.8207C3.09923 18.824 3.72065 20.4235 4.9426 21.6274C6.16454 22.8282 7.84169 23.4338 9.93555 23.4338C12.8795 23.4338 15.3193 22.2785 17.2663 19.9741C17.5413 20.551 17.7946 21.0296 18.0415 21.456C18.2915 21.8573 18.5919 22.2554 18.9387 22.6317C19.1888 22.8574 19.4365 22.9807 19.6834 22.9807C19.8834 22.9807 20.1115 22.9046 20.3365 22.7541L21.9052 21.707C22.2302 21.4562 22.3813 21.2015 22.3813 20.9539C22.3813 20.7783 22.3293 20.5789 22.2043 20.3783C21.8543 19.7262 21.6077 19.1298 21.4108 18.578C21.2358 18.0263 21.1361 17.274 21.1361 16.3492H21.0812V8.23581C21.0812 5.48318 20.3871 3.43315 19.012 2.08192C17.6182 0.733814 15.4498 0.0551095 12.4809 0.0551095ZM24.0782 0.655191C23.6782 0.655191 23.48 0.884594 23.48 1.28589C23.48 1.46146 23.5559 1.7855 23.7059 2.28398L29.5656 21.6274C29.7156 22.104 29.8905 22.4505 30.0905 22.601C30.2905 22.7766 30.5897 22.8521 31.0366 22.8521H33.1791C33.6291 22.8521 33.9801 22.7766 34.1801 22.601C34.3801 22.4255 34.5312 22.1014 34.6562 21.6029L38.4955 5.48646L42.3593 21.6274C42.4593 22.1291 42.6353 22.4561 42.8354 22.6317C43.0354 22.8072 43.3584 22.8827 43.8303 22.8827H45.9788C46.4039 22.8827 46.7249 22.7821 46.9249 22.6317C47.125 22.4812 47.2999 22.1504 47.4499 21.6519L53.4622 2.30848C53.5622 2.03259 53.6081 1.83439 53.6331 1.6839C53.6581 1.53342 53.688 1.40517 53.688 1.27977C53.688 0.85339 53.4593 0.655191 53.0593 0.655191H50.7399C50.2898 0.655191 49.9693 0.75576 49.7693 0.906246C49.5943 1.05673 49.4188 1.38136 49.2688 1.87985L44.9534 18.6454L41.0103 1.87985C40.9103 1.40331 40.7403 1.05673 40.5403 0.906246C40.3403 0.730679 40.0112 0.655191 39.5393 0.655191H37.5433C37.0933 0.655191 36.7484 0.75576 36.5484 0.906246C36.3484 1.05673 36.1973 1.38136 36.0723 1.87985L32.1902 18.4494L27.9969 1.88597C27.8469 1.40943 27.6964 1.05673 27.4964 0.906246C27.3213 0.730679 26.9977 0.655191 26.5258 0.655191H24.0782ZM12.4076 12.6936C13.1795 12.6936 13.9546 12.7463 14.7515 12.8466C15.5484 12.947 16.3185 13.0936 17.0404 13.2692V14.3224C17.0404 15.172 16.9402 15.8973 16.7902 16.4961C16.6402 17.0981 16.3448 17.6239 15.9479 18.1004C15.2728 18.8497 14.4765 19.3976 13.5796 19.6986C12.6826 19.9996 11.8318 20.1517 11.0098 20.1517C9.86289 20.1517 8.98819 19.851 8.39128 19.2271C7.76624 18.6252 7.4696 17.7514 7.4696 16.5757C7.4696 15.3248 7.86845 14.375 8.69037 13.6978C9.51229 13.0206 10.7356 12.6936 12.4076 12.6936ZM69.4909 28.0569C66.8654 28.0941 63.7655 28.6825 61.4216 30.3347C60.6997 30.8614 60.823 31.5617 61.623 31.4614C64.2919 31.1354 70.1836 30.4347 71.2305 31.786C72.2774 33.1121 70.0545 38.6962 69.0575 41.173C68.7575 41.9222 69.4111 42.2182 70.083 41.6444C74.4707 37.9419 75.6127 30.2111 74.7158 29.0856C74.2674 28.5354 72.1165 28.0196 69.4909 28.0569ZM0.547819 29.551C-0.00167478 29.619 -0.247099 30.288 0.334184 30.8124C10.1129 39.6722 23.0609 45 37.4273 45C47.681 45 59.5995 41.7716 67.8062 35.6926C69.1532 34.6894 67.9818 33.1612 66.6099 33.7883C57.4062 37.6915 47.407 39.5993 38.3002 39.5993C24.8057 39.5993 11.7582 35.8675 1.18262 29.7102C0.952139 29.5722 0.730984 29.5283 0.547819 29.551Z"/>
</mask>
<path d="M63.9242 0C62.8273 0 61.7808 0.127658 60.7807 0.42863C59.7838 0.729601 58.9335 1.15603 58.1866 1.73289C57.4396 2.28467 56.8421 2.9816 56.392 3.78419C55.942 4.58364 55.7145 5.51389 55.7145 6.56416C55.7145 7.86523 56.1378 9.08871 56.9597 10.1891C57.7816 11.3146 59.1296 12.1688 60.9516 12.7426L64.5651 13.8692C65.787 14.2705 66.636 14.6908 67.086 15.1674C67.536 15.6439 67.7574 16.2164 67.7574 16.9186C67.7574 17.9438 67.3103 18.7458 66.4634 19.2945C65.6165 19.8462 64.3882 20.1211 62.8194 20.1211C61.8225 20.1211 60.8498 20.0217 59.8529 19.8211C58.881 19.6204 57.9531 19.3185 57.1062 18.9454C56.8562 18.8451 56.6336 18.7445 56.4836 18.6944C56.3336 18.6442 56.1819 18.6209 56.0319 18.6209C55.6569 18.6209 55.4581 18.8689 55.4581 19.3924V20.6722C55.4581 20.8979 55.5107 21.1477 55.6107 21.3703C55.7139 21.6054 55.989 21.8487 56.3859 22.0744C57.036 22.4506 58.0078 22.7777 59.2547 23.0787C60.5017 23.3796 61.7971 23.5318 63.0941 23.5318C64.366 23.5318 65.5368 23.3502 66.6587 22.999C67.7307 22.673 68.658 22.23 69.4299 21.6029C70.2018 21.001 70.7988 20.2482 71.2488 19.3986C71.6738 18.5489 71.9019 17.5715 71.9019 16.4961C71.9019 15.195 71.5263 14.0188 70.7544 12.9936C69.9825 11.9684 68.6815 11.167 66.8846 10.5933L63.3443 9.46659C62.0224 9.04022 61.1037 8.56539 60.6037 8.08886C60.1037 7.61232 59.8529 7.01537 59.8529 6.3131C59.8529 5.28792 60.2529 4.56376 61.0249 4.09035C61.7968 3.61381 62.9234 3.38617 64.3454 3.38617C66.1173 3.38617 67.7149 3.71693 69.1369 4.3659C69.5619 4.56655 69.883 4.66594 70.083 4.66594C70.458 4.66594 70.6567 4.38736 70.6567 3.86379V2.682C70.6567 2.33086 70.5809 2.05899 70.4309 1.86148C70.2809 1.63575 70.0331 1.43143 69.6862 1.23078C69.4362 1.08029 69.0894 0.928143 68.6425 0.777657C68.1924 0.627171 67.7203 0.505048 67.2203 0.379643C66.6952 0.27932 66.1717 0.179339 65.5967 0.104096C65.0466 0.0288529 64.4742 0 63.9242 0ZM12.4809 0.0551095C11.1089 0.0551095 9.80855 0.206673 8.5866 0.532726C7.36153 0.830562 6.31504 1.20795 5.44311 1.65941C5.09309 1.83498 4.87228 2.00746 4.74727 2.17989C4.62227 2.35546 4.57026 2.66035 4.57026 3.06164V4.2863C4.57026 4.813 4.74517 5.05783 5.09519 5.05783C5.1952 5.05783 5.32304 5.03451 5.49805 4.98435C5.66993 4.93419 5.96477 4.83538 6.3648 4.65982C7.23672 4.30868 8.14078 4.0374 9.0627 3.8148C9.98463 3.58908 10.8826 3.48415 11.7545 3.48415C13.6765 3.48415 15.0228 3.86095 15.8197 4.63532C16.5916 5.4097 16.9916 6.73693 16.9916 8.63995V10.4708C15.9947 10.2451 15.0479 10.039 14.1228 9.91359C13.2009 9.78819 12.3268 9.71765 11.4798 9.71765C8.91094 9.71765 6.89183 10.3699 5.36987 11.671C3.85103 12.9721 3.09923 14.695 3.09923 16.8207C3.09923 18.824 3.72065 20.4235 4.9426 21.6274C6.16454 22.8282 7.84169 23.4338 9.93555 23.4338C12.8795 23.4338 15.3193 22.2785 17.2663 19.9741C17.5413 20.551 17.7946 21.0296 18.0415 21.456C18.2915 21.8573 18.5919 22.2554 18.9387 22.6317C19.1888 22.8574 19.4365 22.9807 19.6834 22.9807C19.8834 22.9807 20.1115 22.9046 20.3365 22.7541L21.9052 21.707C22.2302 21.4562 22.3813 21.2015 22.3813 20.9539C22.3813 20.7783 22.3293 20.5789 22.2043 20.3783C21.8543 19.7262 21.6077 19.1298 21.4108 18.578C21.2358 18.0263 21.1361 17.274 21.1361 16.3492H21.0812V8.23581C21.0812 5.48318 20.3871 3.43315 19.012 2.08192C17.6182 0.733814 15.4498 0.0551095 12.4809 0.0551095ZM24.0782 0.655191C23.6782 0.655191 23.48 0.884594 23.48 1.28589C23.48 1.46146 23.5559 1.7855 23.7059 2.28398L29.5656 21.6274C29.7156 22.104 29.8905 22.4505 30.0905 22.601C30.2905 22.7766 30.5897 22.8521 31.0366 22.8521H33.1791C33.6291 22.8521 33.9801 22.7766 34.1801 22.601C34.3801 22.4255 34.5312 22.1014 34.6562 21.6029L38.4955 5.48646L42.3593 21.6274C42.4593 22.1291 42.6353 22.4561 42.8354 22.6317C43.0354 22.8072 43.3584 22.8827 43.8303 22.8827H45.9788C46.4039 22.8827 46.7249 22.7821 46.9249 22.6317C47.125 22.4812 47.2999 22.1504 47.4499 21.6519L53.4622 2.30848C53.5622 2.03259 53.6081 1.83439 53.6331 1.6839C53.6581 1.53342 53.688 1.40517 53.688 1.27977C53.688 0.85339 53.4593 0.655191 53.0593 0.655191H50.7399C50.2898 0.655191 49.9693 0.75576 49.7693 0.906246C49.5943 1.05673 49.4188 1.38136 49.2688 1.87985L44.9534 18.6454L41.0103 1.87985C40.9103 1.40331 40.7403 1.05673 40.5403 0.906246C40.3403 0.730679 40.0112 0.655191 39.5393 0.655191H37.5433C37.0933 0.655191 36.7484 0.75576 36.5484 0.906246C36.3484 1.05673 36.1973 1.38136 36.0723 1.87985L32.1902 18.4494L27.9969 1.88597C27.8469 1.40943 27.6964 1.05673 27.4964 0.906246C27.3213 0.730679 26.9977 0.655191 26.5258 0.655191H24.0782ZM12.4076 12.6936C13.1795 12.6936 13.9546 12.7463 14.7515 12.8466C15.5484 12.947 16.3185 13.0936 17.0404 13.2692V14.3224C17.0404 15.172 16.9402 15.8973 16.7902 16.4961C16.6402 17.0981 16.3448 17.6239 15.9479 18.1004C15.2728 18.8497 14.4765 19.3976 13.5796 19.6986C12.6826 19.9996 11.8318 20.1517 11.0098 20.1517C9.86289 20.1517 8.98819 19.851 8.39128 19.2271C7.76624 18.6252 7.4696 17.7514 7.4696 16.5757C7.4696 15.3248 7.86845 14.375 8.69037 13.6978C9.51229 13.0206 10.7356 12.6936 12.4076 12.6936ZM69.4909 28.0569C66.8654 28.0941 63.7655 28.6825 61.4216 30.3347C60.6997 30.8614 60.823 31.5617 61.623 31.4614C64.2919 31.1354 70.1836 30.4347 71.2305 31.786C72.2774 33.1121 70.0545 38.6962 69.0575 41.173C68.7575 41.9222 69.4111 42.2182 70.083 41.6444C74.4707 37.9419 75.6127 30.2111 74.7158 29.0856C74.2674 28.5354 72.1165 28.0196 69.4909 28.0569ZM0.547819 29.551C-0.00167478 29.619 -0.247099 30.288 0.334184 30.8124C10.1129 39.6722 23.0609 45 37.4273 45C47.681 45 59.5995 41.7716 67.8062 35.6926C69.1532 34.6894 67.9818 33.1612 66.6099 33.7883C57.4062 37.6915 47.407 39.5993 38.3002 39.5993C24.8057 39.5993 11.7582 35.8675 1.18262 29.7102C0.952139 29.5722 0.730984 29.5283 0.547819 29.551Z" fill="url(#paint0_linear_85_35)" stroke="black" stroke-width="2" mask="url(#path-1-inside-1_85_35)"/>
<defs>
<linearGradient id="paint0_linear_85_35" x1="37.5" y1="0" x2="37.5" y2="45" gradientUnits="userSpaceOnUse">
<stop stop-color="#454545"/>
<stop offset="1" stop-color="#1A1A1A"/>
</linearGradient>
</defs>
</svg>
