<svg width="75" height="62" viewBox="0 0 75 62" fill="none" xmlns="http://www.w3.org/2000/svg">
<path d="M15.5781 0.5H59.4287C63.2596 0.5 66.1787 3.84842 66.2363 7.63477L66.2334 8.00293C66.0965 12.0266 66.271 17.2842 67.5664 21.5957C68.8134 25.7429 70.9447 28.6113 74.5 29.165V32.1973C70.9447 32.751 68.8134 35.6205 67.5664 39.7676C66.2693 44.0792 66.0965 49.3369 66.2334 53.3604C66.3652 57.2951 63.3821 60.863 59.4277 60.8633H15.5781C11.6235 60.8633 8.64003 57.2951 8.77344 53.3604C8.90605 49.4624 8.74603 44.4068 7.55664 40.1748L7.43848 39.7676C6.19289 35.6199 4.05691 32.7508 0.5 32.1973V29.165C3.93978 28.6293 6.05276 25.9277 7.31445 21.9961L7.43848 21.5957C8.65451 17.5536 8.88376 12.6802 8.79492 8.77148L8.77344 8.00293C8.64004 4.06822 11.6235 0.5 15.5781 0.5Z" fill="url(#paint0_linear_86_58)" stroke="black"/>
<path d="M38.4136 15.2136C41.1831 15.2136 43.48 15.947 45.0913 17.281H45.0923C46.6998 18.6115 47.5542 20.4797 47.5542 22.7185C47.554 25.8436 45.1825 28.6837 42.1704 29.2039L41.7554 29.2751V30.1912L42.1978 30.2429C46.402 30.7298 49.1587 33.6823 49.1587 37.5857C49.1586 40.2222 48.1823 42.372 46.3628 43.8464H46.3618C44.532 45.33 41.8227 46.1462 38.4819 46.1462H25.8413V15.2136H38.4136ZM30.0435 42.9724H37.4438C39.7545 42.9724 41.6046 42.5146 42.8872 41.5496C44.1937 40.5664 44.8433 39.1082 44.8433 37.28C44.8432 35.4457 44.181 34 42.8267 33.0349C41.5027 32.0916 39.5826 31.6541 37.1509 31.6541H30.0435V42.9724ZM30.0435 28.741H36.1343C38.3553 28.741 40.1548 28.3021 41.4116 27.3972C42.6929 26.4746 43.355 25.107 43.356 23.4021C43.356 21.823 42.8029 20.54 41.7056 19.6658C40.6262 18.8061 39.0845 18.3934 37.1968 18.3933H30.0435V28.741Z" fill="url(#paint1_linear_86_58)" stroke="black"/>
<defs>
<linearGradient id="paint0_linear_86_58" x1="37.5" y1="0" x2="37.5" y2="61.3636" gradientUnits="userSpaceOnUse">
<stop stop-color="#454545"/>
<stop offset="1" stop-color="#1A1A1A"/>
</linearGradient>
<linearGradient id="paint1_linear_86_58" x1="37.4998" y1="14.7136" x2="37.4998" y2="46.6466" gradientUnits="userSpaceOnUse">
<stop stop-color="#454545"/>
<stop offset="1" stop-color="#1A1A1A"/>
</linearGradient>
</defs>
</svg>
