<svg width="24" height="20" viewBox="0 0 24 20" fill="none" xmlns="http://www.w3.org/2000/svg">
<path d="M11.8869 10.3223C12.6755 10.3223 13.2983 10.4673 13.7277 10.7798C14.1669 11.0995 14.3817 11.5786 14.3818 12.1863C14.3817 12.792 14.171 13.2752 13.7474 13.6009C13.3314 13.9207 12.731 14.0723 11.9816 14.0723H9.58182V10.3223H11.8869Z" fill="#454545"/>
<path d="M11.9018 5.92862C12.514 5.92868 13.0141 6.0654 13.3641 6.35022C13.7199 6.63987 13.8994 7.06503 13.8994 7.58817C13.899 8.15302 13.684 8.60619 13.2685 8.91186C12.8609 9.21159 12.2774 9.35706 11.5572 9.35708H9.58182V5.92862H11.9018Z" fill="#454545"/>
<path fill-rule="evenodd" clip-rule="evenodd" d="M19.112 0C20.3545 2.20946e-06 21.3012 1.10942 21.3199 2.36394L21.3189 2.48593C21.2745 3.81908 21.3311 5.56106 21.7513 6.98958C22.1557 8.36366 22.8469 9.31405 24 9.49751V10.5022C22.8469 10.6856 22.1557 11.6364 21.7513 13.0104C21.3306 14.439 21.2745 16.181 21.3189 17.5141C21.3617 18.8177 20.3942 19.9999 19.1117 20H4.8902C3.60763 20 2.64001 18.8177 2.68328 17.5141C2.72628 16.2226 2.67439 14.5475 2.28864 13.1453L2.25032 13.0104C1.84634 11.6362 1.15359 10.6856 0 10.5022V9.49751C1.1156 9.32002 1.8009 8.42489 2.21009 7.12224L2.25032 6.98958C2.6447 5.65032 2.71906 4.03563 2.69024 2.74057L2.68328 2.48593C2.64001 1.18225 3.60763 0 4.8902 0H19.112ZM8.21896 4.87511V15.1239H12.3183C13.4018 15.1239 14.2811 14.8535 14.8746 14.3619C15.4646 13.8734 15.7813 13.1611 15.7814 12.2876C15.7814 10.9943 14.8872 10.0161 13.5238 9.85472L13.3803 9.83757V9.53407L13.5146 9.51045C14.4914 9.3381 15.2609 8.39708 15.261 7.36168C15.261 6.61996 14.9835 6.00091 14.4622 5.56009C13.9396 5.11812 13.1946 4.87513 12.2965 4.87511H8.21896Z" fill="#454545"/>
</svg>
