<svg width="75" height="49" viewBox="0 0 75 49" fill="none" xmlns="http://www.w3.org/2000/svg">
<path d="M60.3447 30.1973C53.3261 42.0327 41.2206 48.4999 25.498 48.5C16.0237 48.5 9.69579 44.9804 5.78027 40.3848C6.71493 40.4624 7.63899 40.498 8.53027 40.498C14.1357 40.498 18.8249 39.1732 20.1182 38.7705L20.457 38.6611C21.4484 38.3216 21.955 37.2791 21.7148 36.3105L21.6562 36.1182C21.3221 35.1663 20.3397 34.5932 19.3457 34.8281L19.1543 34.8828C19.0697 34.9107 10.798 37.6974 2.87012 35.9395C1.91485 34.0317 1.25294 32.079 0.881836 30.1973H60.3447ZM23.998 32.167C22.9006 32.167 21.9981 33.0527 21.998 34.1514C21.998 35.2501 22.9006 36.1367 23.998 36.1367C25.0954 36.1366 25.998 35.25 25.998 34.1514C25.998 33.923 25.9793 33.6619 25.8623 33.3945L25.5791 32.75L25.7295 32.6641L25.5049 32.5791L25.4619 32.4805L25.4229 32.5488L24.7363 32.291C24.4977 32.2014 24.2363 32.167 23.998 32.167ZM24.9688 33.3477C24.9643 33.3553 24.9483 33.3765 24.916 33.3955C24.8843 33.4141 24.8564 33.4198 24.8418 33.4199C24.8315 33.4199 24.8071 33.4154 24.7783 33.3838C24.748 33.3505 24.7324 33.3062 24.7324 33.2695C24.7324 33.2683 24.7324 33.2633 24.7402 33.252C24.7512 33.2361 24.7739 33.2139 24.8096 33.1934L25.1758 32.9814L24.9688 33.3477ZM69.7656 27.7334C69.8342 27.9178 69.9293 28.0913 70.0518 28.251C70.3674 28.6625 70.8307 28.9653 71.3154 29.1973H66.1797C66.2731 29.1814 66.3663 29.1647 66.459 29.1465C67.6568 28.9108 68.8152 28.4657 69.7656 27.7334ZM39.9961 0.5V15.3486H47.4951V22.7725H48.7451C52.2406 22.7725 54.4386 21.8954 55.7363 21.1797L56.1641 20.9434L55.9385 20.5098C55.343 19.3694 54.9562 18.0815 54.8213 16.6123C54.287 10.7643 57.6826 7.93577 57.7754 7.86133L57.7803 7.85742C58.0954 7.59875 58.5398 7.56274 58.9062 7.76758L58.9072 7.76855C59.0583 7.8527 63.0374 10.1197 64.5791 15.0898L64.709 15.5068L65.1396 15.4346C70.6329 14.5068 74.0029 17.2295 74.1084 17.3184L74.1123 17.3223C74.4368 17.5899 74.5659 17.9757 74.4668 18.3252C74.4349 18.4327 73.9301 20.1158 72.2939 21.7812C70.67 23.4343 67.8997 25.1037 63.2695 25.1602L62.9443 25.1641L62.8164 25.4629C62.4212 26.3827 62.0008 27.2526 61.5508 28.1152C60.9411 27.995 60.3796 27.8416 59.9014 27.6602C59.3241 27.4411 58.8988 27.1976 58.6465 26.9639L58.2256 26.5732L57.8975 27.0449C57.7137 27.3084 57.3952 27.5587 56.9287 27.7783C56.4653 27.9965 55.8845 28.1704 55.2168 28.2988C53.881 28.5557 52.2533 28.6187 50.6475 28.5225C49.0419 28.4263 47.4856 28.1724 46.293 27.8125C45.6954 27.6322 45.2073 27.4304 44.8545 27.2197C44.4876 27.0006 44.3367 26.8139 44.2939 26.6963L44.0029 25.8916L43.4453 26.54C42.897 27.1778 42.0299 27.6866 40.957 28.0352C39.8893 28.382 38.6518 28.5586 37.4053 28.5586C36.1587 28.5586 34.9202 28.382 33.8516 28.0352C32.778 27.6866 31.9102 27.1781 31.3604 26.54L30.8027 25.8936L30.5117 26.6963C30.4691 26.8134 30.3186 27.0004 29.9502 27.2197C29.5961 27.4305 29.1058 27.6321 28.5059 27.8125C27.3087 28.1725 25.7463 28.4263 24.1348 28.5225C22.5231 28.6186 20.8901 28.5557 19.5498 28.2988C18.8797 28.1704 18.2968 27.9956 17.832 27.7773C17.3641 27.5576 17.0448 27.3081 16.8613 27.0449L16.5332 26.5723L16.1113 26.9639C15.7458 27.3033 15.0522 27.6533 14.1172 27.9229C13.1963 28.1883 12.0917 28.3619 10.9492 28.3818C8.63773 28.4221 6.30583 27.8379 4.96973 26.3057L4.11133 26.7676C4.20906 27.1231 4.14276 27.3813 3.98535 27.6035C3.81091 27.8497 3.50158 28.0809 3.06934 28.291C2.36506 28.6333 1.47852 28.8553 0.696289 29.0391C0.569169 28.1154 0.500021 27.2021 0.5 26.3564C0.5 25.5873 0.553767 24.8995 0.609375 24.3984C0.665075 23.8965 0.721438 23.5955 0.722656 23.5889L0.724609 23.5791L0.726562 23.5684C0.812084 23.1 1.20135 22.7725 1.6875 22.7725H7.99902V15.3486H15.499V7.92383H30.4971V0.5H39.9961ZM9.99902 22.7725H15.499V17.3184H9.99902V22.7725ZM17.498 22.7725H22.998V17.3184H17.498V22.7725ZM24.998 22.7725H30.4971V17.3184H24.998V22.7725ZM32.4971 22.7725H37.9961V17.3184H32.4971V22.7725ZM39.9961 22.7725H45.4961V17.3184H39.9961V22.7725ZM17.498 15.3486H22.998V9.89355H17.498V15.3486ZM24.998 15.3486H30.4971V9.89355H24.998V15.3486ZM32.4971 15.3486H37.9961V9.89355H32.4971V15.3486ZM32.4971 7.92383H37.9961V2.46973H32.4971V7.92383Z" fill="url(#paint0_linear_86_38)" stroke="black"/>
<defs>
<linearGradient id="paint0_linear_86_38" x1="37.5" y1="0" x2="37.5" y2="49" gradientUnits="userSpaceOnUse">
<stop stop-color="#454545"/>
<stop offset="1" stop-color="#1A1A1A"/>
</linearGradient>
</defs>
</svg>
