<svg width="24" height="16" viewBox="0 0 24 16" fill="none" xmlns="http://www.w3.org/2000/svg">
<path d="M19.4092 9.8991C17.1329 13.8442 13.2068 16 8.10752 16C5.03475 16 2.98244 14.8268 1.71253 13.2949C2.01567 13.3208 2.31537 13.3327 2.60443 13.3327C4.42242 13.3327 5.94326 12.8911 6.36271 12.7568L6.47259 12.7204C6.79413 12.6072 6.95843 12.2597 6.88053 11.9368L6.86152 11.8727C6.75317 11.5554 6.43455 11.3644 6.11217 11.4427L6.05009 11.4609C6.02265 11.4702 3.33992 12.3991 0.768694 11.8132C0.458874 11.1772 0.244199 10.5263 0.12384 9.8991H19.4092ZM7.62103 10.5557C7.26512 10.5557 6.97241 10.8509 6.97238 11.2171C6.97238 11.5834 7.26512 11.8789 7.62103 11.8789C7.97695 11.8789 8.26969 11.5833 8.26969 11.2171C8.26969 11.141 8.26362 11.054 8.22568 10.9648L8.13383 10.75L8.1826 10.7214L8.10976 10.693L8.09582 10.6602L8.08317 10.6829L7.86048 10.597C7.7831 10.5671 7.69832 10.5557 7.62103 10.5557ZM7.93589 10.9492C7.93443 10.9518 7.92924 10.9588 7.91877 10.9652C7.90848 10.9714 7.89944 10.9733 7.8947 10.9733C7.89136 10.9733 7.88345 10.9718 7.8741 10.9613C7.86428 10.9502 7.85922 10.9354 7.85922 10.9232C7.85922 10.9232 7.85922 10.9211 7.86175 10.9173C7.86532 10.912 7.87268 10.9046 7.88426 10.8978L8.00303 10.8271L7.93589 10.9492ZM22.4647 9.0778C22.4869 9.13927 22.5178 9.1971 22.5575 9.25033C22.6599 9.3875 22.8101 9.48843 22.9673 9.56577H21.3017C21.332 9.56047 21.3622 9.5549 21.3923 9.54883C21.7808 9.47027 22.1565 9.3219 22.4647 9.0778ZM12.8096 0V4.94953H15.2418V7.42417H15.6472C16.7809 7.42417 17.4937 7.1318 17.9146 6.89323L18.0534 6.81447L17.9802 6.66993C17.7871 6.2898 17.6616 5.8605 17.6179 5.37077C17.4446 3.42143 18.5459 2.47859 18.576 2.45378L18.5775 2.45247C18.6797 2.36625 18.8239 2.35425 18.9427 2.42253L18.943 2.42285C18.992 2.4509 20.2826 3.20657 20.7826 4.86327L20.8247 5.00227L20.9644 4.9782C22.746 4.66893 23.839 5.5765 23.8732 5.60613L23.8744 5.60743C23.9797 5.69663 24.0216 5.82523 23.9894 5.94173C23.9791 5.97757 23.8154 6.5386 23.2847 7.09373C22.758 7.64477 21.8595 8.20123 20.3578 8.22007L20.2524 8.22137L20.2109 8.32097C20.0827 8.62757 19.9464 8.91753 19.8004 9.20507C19.6027 9.165 19.4206 9.11387 19.2655 9.0534C19.0782 8.98037 18.9403 8.8992 18.8585 8.8213L18.722 8.69107L18.6156 8.8483C18.5559 8.93613 18.4526 9.01957 18.3013 9.09277C18.1511 9.1655 17.9627 9.22347 17.7461 9.26627C17.3129 9.3519 16.785 9.3729 16.2642 9.34083C15.7434 9.30877 15.2387 9.22413 14.8519 9.10417C14.6581 9.04407 14.4998 8.9768 14.3854 8.90657C14.2664 8.83353 14.2174 8.7713 14.2035 8.7321L14.1092 8.46387L13.9283 8.68C13.7505 8.8926 13.4693 9.0622 13.1213 9.1784C12.775 9.294 12.3737 9.35287 11.9694 9.35287C11.5651 9.35287 11.1634 9.294 10.8168 9.1784C10.4686 9.0622 10.1872 8.8927 10.0089 8.68L9.82798 8.46453L9.7336 8.7321C9.71978 8.77113 9.67097 8.83347 9.55149 8.90657C9.43665 8.97683 9.27763 9.04403 9.08307 9.10417C8.69478 9.22417 8.18805 9.30877 7.6654 9.34083C7.14268 9.37287 6.61306 9.3519 6.17836 9.26627C5.96103 9.22347 5.77198 9.1652 5.62123 9.09243C5.46948 9.0192 5.36592 8.93603 5.30641 8.8483L5.2 8.69077L5.06316 8.8213C4.94462 8.93443 4.71967 9.0511 4.41642 9.14097C4.11775 9.22943 3.7595 9.2873 3.38896 9.29393C2.63928 9.30737 1.88299 9.11263 1.44965 8.6019L1.17125 8.75587C1.20295 8.87437 1.18144 8.96043 1.13039 9.0345C1.07382 9.11657 0.973493 9.19363 0.833306 9.26367C0.604889 9.37777 0.31736 9.45177 0.0636618 9.51303C0.0224334 9.20513 6.81086e-06 8.9007 0 8.6188C0 8.36243 0.0174381 8.13317 0.0354733 7.96613C0.0535383 7.79883 0.0718183 7.6985 0.0722133 7.6963L0.0728467 7.69303L0.0734802 7.68947C0.101217 7.53333 0.227467 7.42417 0.385138 7.42417H2.43213V4.94953H4.86458V2.47461H9.72887V0H12.8096ZM3.08079 7.42417H4.86458V5.60613H3.08079V7.42417ZM5.51291 7.42417H7.29671V5.60613H5.51291V7.42417ZM7.94536 7.42417H9.72887V5.60613H7.94536V7.42417ZM10.3775 7.42417H12.161V5.60613H10.3775V7.42417ZM12.8096 7.42417H14.5934V5.60613H12.8096V7.42417ZM5.51291 4.94953H7.29671V3.13118H5.51291V4.94953ZM7.94536 4.94953H9.72887V3.13118H7.94536V4.94953ZM10.3775 4.94953H12.161V3.13118H10.3775V4.94953ZM10.3775 2.47461H12.161V0.656577H10.3775V2.47461Z" fill="#454545"/>
</svg>
