<svg width="24" height="24" viewBox="0 0 24 24" fill="none" xmlns="http://www.w3.org/2000/svg">
<path d="M3.72973 19.5288C3.72973 19.9369 4.06307 20.2703 4.47117 20.2703H16.5108L11.333 23.6494C10.9821 23.8761 10.5726 24 10.1529 24H3.64294C2.86549 24 2.20385 23.4331 2.08847 22.6675V22.6669L1.31915 17.6722L3.72973 11.8483V19.5288ZM22.2625 21.2664C22.2625 21.8139 21.8139 22.2625 21.2664 22.2625H16.1779L19.2302 20.2703H19.5288C19.9167 20.2703 20.2363 19.9692 20.2671 19.589L22.2625 18.2876V21.2664ZM18.7877 5.21231V18.7877H5.21231V5.21231H18.7877ZM6.04625 17.9538H12.7414V16.4712H6.04625V17.9538ZM9.68348 0H22.4246C23.2964 0 24 0.70355 24 1.57538V14.2183C24 14.9461 23.6328 15.6297 23.0254 16.0221L23.0248 16.0224L20.2703 17.822V4.47117C20.2703 4.06307 19.9369 3.72973 19.5288 3.72973H7.08795L8.22908 0.970755C8.47648 0.382278 9.04901 0 9.68348 0ZM0.996094 2.31651H6.06652L5.48027 3.72973H4.47117C4.06307 3.72973 3.72973 4.06307 3.72973 4.47117V7.96557L0.882389 14.8416L0 9.09185V3.31262C7.42703e-05 2.76518 0.448654 2.31654 0.996094 2.31651ZM6.04625 7.52883H7.20451V10.6796H6.04625V12.1622H9.84564V10.6796H8.68738V7.52883H9.84564V6.04625H6.04625V7.52883ZM11.8378 10.2625C11.8378 10.4926 11.6508 10.6796 11.4207 10.6796H10.1003V12.1622H11.4207C12.4699 12.1622 13.3204 11.3117 13.3204 10.2625V6.04625H11.8378V10.2625Z" fill="#454545"/>
</svg>
