<svg width="75" height="75" viewBox="0 0 75 75" fill="none" xmlns="http://www.w3.org/2000/svg">
<path d="M12 60.7139C12 61.9722 13.0278 63 14.2861 63H51.4082L35.4434 73.4189C34.3615 74.118 33.0989 74.5 31.8047 74.5H11.7324C9.33526 74.4999 7.29521 72.7522 6.93945 70.3916V70.3896L4.56738 54.9893L12 37.0322V60.7139ZM69.1426 66.0713C69.1426 67.7594 67.7594 69.1426 66.0713 69.1426H50.3818L59.793 63H60.7139C61.9098 63 62.8953 62.0717 62.9902 60.8994L69.1426 56.8867V66.0713ZM58.4287 16.5713V58.4287H16.5713V16.5713H58.4287ZM19.1426 55.8574H39.7861V51.2861H19.1426V55.8574ZM30.3574 0.5H69.6426C72.3307 0.5 74.5 2.66928 74.5 5.35742V44.3398C74.4999 46.5837 73.3677 48.6916 71.4951 49.9014L71.4932 49.9023L63 55.4512V14.2861C63 13.0278 61.9722 12 60.7139 12H22.3545L25.873 3.49316C26.6358 1.67869 28.4011 0.5 30.3574 0.5ZM3.57129 7.64258H19.2051L17.3975 12H14.2861C13.0278 12 12 13.0278 12 14.2861V25.0605L3.2207 46.2617L0.5 28.5332V10.7139C0.500229 9.02596 1.88335 7.64265 3.57129 7.64258ZM19.1426 23.7139H22.7139V33.4287H19.1426V38H30.8574V33.4287H27.2861V23.7139H30.8574V19.1426H19.1426V23.7139ZM37 32.1426C37 32.8522 36.4234 33.4287 35.7139 33.4287H31.6426V38H35.7139C38.9489 38 41.5713 35.3776 41.5713 32.1426V19.1426H37V32.1426Z" fill="url(#paint0_linear_86_40)" stroke="black"/>
<defs>
<linearGradient id="paint0_linear_86_40" x1="37.5" y1="0" x2="37.5" y2="75" gradientUnits="userSpaceOnUse">
<stop stop-color="#454545"/>
<stop offset="1" stop-color="#1A1A1A"/>
</linearGradient>
</defs>
</svg>
