<svg width="75" height="78" viewBox="0 0 75 78" fill="none" xmlns="http://www.w3.org/2000/svg">
<path d="M25.168 13.1104C25.0113 19.8705 27.4047 26.7089 32.377 31.9092L25.6787 38.6475L25.3281 39L25.6787 39.3525L37.1416 50.8828C44.333 58.1165 44.4089 69.8522 37.4893 77.2822L34.6221 74.3936L1.25195 40.8271H1.25293C0.249385 39.8149 0.2493 38.1782 1.25293 37.166L1.25195 37.165L12.3486 26.0107L12.3516 26.0078L12.7363 25.6152L12.7354 25.6143L25.168 13.1104ZM50.7959 14.0869L73.7461 37.1729C74.7496 38.1823 74.7518 39.8179 73.7471 40.8262L73.7461 40.8271L62.2588 52.3818L49.8242 64.8887C49.9806 58.1285 47.5877 51.2899 42.6152 46.0898L49.3145 39.3525L49.6641 39L49.3145 38.6475L37.8506 27.1172C30.659 19.8832 30.5826 8.14579 37.5029 0.71582L50.7959 14.0869Z" fill="url(#paint0_linear_86_51)" stroke="black"/>
<defs>
<linearGradient id="paint0_linear_86_51" x1="37.5" y1="0" x2="37.5" y2="78" gradientUnits="userSpaceOnUse">
<stop stop-color="#454545"/>
<stop offset="1" stop-color="#1A1A1A"/>
</linearGradient>
</defs>
</svg>
