<svg width="24" height="25" viewBox="0 0 24 25" fill="none" xmlns="http://www.w3.org/2000/svg">
<path d="M8.00054 4.047C7.94972 6.25427 8.72596 8.48711 10.3386 10.1851L8.16617 12.3852L8.05246 12.5003L8.16617 12.6154L11.8839 16.3802C14.2163 18.7421 14.2409 22.574 11.9967 25L11.0668 24.0568L0.243922 13.0969C-0.0815546 12.7664 -0.0812643 12.232 0.24424 11.9015L0.243922 11.9012L3.84286 8.25913L3.84384 8.25819L3.9686 8.13L3.96831 8.1297L8.00054 4.047ZM16.3124 4.36585L23.7557 11.9037C24.0812 12.2333 24.0819 12.7674 23.756 13.0966L23.7557 13.0969L20.0301 16.8697L15.9972 20.9533C16.0479 18.746 15.2718 16.5131 13.6591 14.8152L15.8319 12.6154L15.9453 12.5003L15.8319 12.3852L12.1138 8.62042C9.78142 6.25842 9.75664 2.42599 12.0011 0L16.3124 4.36585Z" fill="#454545"/>
</svg>
