<svg width="24" height="22" viewBox="0 0 24 22" fill="none" xmlns="http://www.w3.org/2000/svg">
<path d="M16.3787 0C16.9743 0 17.5196 0.134445 17.9994 0.417182C19.5004 1.29959 20.1135 3.48359 19.7946 6.30517L19.7809 6.42574L19.8908 6.4745C22.449 7.60366 24 9.23461 24 11C24 12.765 22.4499 14.3964 19.8927 15.5255L19.7828 15.5743L19.7965 15.6948C20.1055 18.4283 19.54 20.5632 18.1397 21.4962L18.0016 21.5828C17.5205 21.8648 16.9748 22 16.3806 22C15.1107 22 13.6171 21.3485 12.0969 20.2004L12 20.1273L11.9031 20.2004C10.3829 21.3485 8.89116 22 7.6213 22C7.06314 22 6.54885 21.8809 6.0912 21.6338L6.00032 21.5828C4.49929 20.7004 3.88654 18.5164 4.20545 15.6948L4.21907 15.5743L4.10916 15.5255C1.55096 14.3963 0 12.7654 0 11C0 9.23461 1.55096 7.60366 4.10916 6.4745L4.21907 6.42574L4.20545 6.30517C3.89633 3.57165 4.46192 1.43677 5.86223 0.503761L6.00032 0.417182C6.48143 0.13521 7.02704 0 7.6213 0C8.8907 0 10.3828 0.651463 11.9031 1.79956L12 1.87267L12.0969 1.79956C13.6171 0.651463 15.1088 0 16.3787 0ZM5.60471 16.2964C5.60261 16.3239 5.59926 16.3526 5.59524 16.3865C5.59138 16.4187 5.58697 16.4556 5.58477 16.4926C5.52979 17.4238 5.60205 18.2451 5.79065 18.8966C5.96663 19.5044 6.24973 19.9831 6.64391 20.2518L6.72435 20.3027C6.98192 20.4543 7.27858 20.5243 7.6213 20.5243C8.46266 20.5243 9.54386 20.0727 10.6907 19.2718L10.855 19.157L10.71 19.0179C10.0473 18.3812 9.40012 17.6549 8.77417 16.8466L8.73428 16.7947L8.66997 16.7854L8.29213 16.7267C7.41694 16.5825 6.58771 16.388 5.81312 16.1518L5.62025 16.0931L5.60471 16.2964ZM18.1869 16.1518C17.3022 16.4215 16.3465 16.6373 15.3322 16.7854L15.2676 16.7947L15.2277 16.8466C14.6018 17.6549 13.9528 18.381 13.29 19.0179L13.145 19.157L13.3093 19.2718C14.4203 20.0479 15.4698 20.4958 16.2992 20.523L16.3787 20.5243C16.7225 20.5243 17.0181 20.4542 17.2757 20.3027C17.7119 20.0459 18.0216 19.5446 18.2094 18.8963C18.398 18.2449 18.4702 17.4238 18.4152 16.4926C18.4131 16.4555 18.4086 16.4184 18.4048 16.3862C18.4007 16.3523 18.3974 16.3238 18.3953 16.2964L18.3798 16.0931L18.1869 16.1518ZM12.8181 17.0057C12.5419 17.0151 12.2745 17.0275 12 17.0275C11.7255 17.0275 11.4581 17.0151 11.1819 17.0057L10.7866 16.9919L11.0587 17.2827C11.3374 17.5803 11.6131 17.8521 11.8904 18.1091L12 18.2104L12.1096 18.1091C12.3869 17.8521 12.6626 17.5803 12.9413 17.2827L13.2134 16.9919L12.8181 17.0057ZM12 6.45014C11.1824 6.45014 10.3741 6.50031 9.5869 6.58801L9.51593 6.59603L9.4738 6.65438C9.01249 7.29323 8.55632 7.97011 8.12805 8.72523C7.71697 9.45021 7.3534 10.1919 7.03313 10.9343L7.00495 11L7.03313 11.0657C7.35357 11.8084 7.71668 12.5512 8.12805 13.2767C8.55759 14.0342 9.01524 14.7114 9.47792 15.3517L9.52005 15.4101L9.59131 15.4181C10.3522 15.5019 11.1541 15.5499 12 15.5499C12.8176 15.5499 13.6259 15.4997 14.4131 15.412L14.4841 15.404L14.5262 15.3456C14.9873 14.7069 15.4437 14.032 15.8719 13.2767C16.2833 12.5512 16.6465 11.8084 16.9669 11.0657L16.995 11L16.9669 10.9343C16.6465 10.192 16.283 9.45021 15.8719 8.72523C15.4425 7.96791 14.9849 7.28876 14.5221 6.6483L14.4799 6.58992L14.4087 6.58191C13.6478 6.49811 12.8459 6.45014 12 6.45014ZM6.17925 13.3017C6.06441 13.6949 5.96267 14.0842 5.87932 14.4676L5.84766 14.6135L5.98797 14.6594C6.35617 14.7799 6.74685 14.8876 7.15161 14.9871L7.53675 15.0817L7.32739 14.7409C7.16916 14.4831 7.01912 14.2682 6.87509 14.0142C6.73583 13.7686 6.60921 13.5221 6.47792 13.2713L6.2917 12.9156L6.17925 13.3017ZM17.5221 13.2732C17.3909 13.5238 17.2657 13.7692 17.1268 14.0142C16.9829 14.268 16.833 14.4807 16.6745 14.7389L16.4661 15.0782L16.85 14.9852C17.2492 14.8885 17.6387 14.7822 18.0133 14.6617L18.1546 14.6161L18.1226 14.4699C18.0391 14.0857 17.9355 13.6965 17.8207 13.3036L17.7083 12.9175L17.5221 13.2732ZM19.4731 8.13038C19.2615 9.03767 18.9704 9.97959 18.5935 10.9394L18.5698 11L18.5935 11.0606C18.972 12.0241 19.2635 12.969 19.4753 13.8795L19.5215 14.0784L19.7034 13.9899C19.7273 13.9782 19.7529 13.9672 19.7838 13.9539L19.8801 13.91C20.6997 13.493 21.3621 13.0186 21.8219 12.5263C22.2796 12.0363 22.5507 11.5124 22.5507 11C22.5507 10.4971 22.2705 9.96705 21.788 9.46371C21.3026 8.95732 20.596 8.46008 19.7018 8.02041L19.5196 7.93093L19.4731 8.13038ZM4.29665 8.01013C4.27275 8.02179 4.24709 8.03279 4.21622 8.04606L4.11992 8.08999C3.30026 8.50704 2.63788 8.98135 2.1781 9.47366C1.72041 9.96373 1.44932 10.4876 1.44932 11C1.44932 11.5029 1.72952 12.0329 2.21199 12.5363C2.6974 13.0427 3.40401 13.5399 4.29824 13.9796L4.48038 14.0691L4.52692 13.8696C4.73864 12.9617 5.03098 12.0194 5.40837 11.0587L5.43211 10.9981L5.40837 10.9375C5.03014 9.97434 4.73633 9.03024 4.52471 8.12046L4.47846 7.92164L4.29665 8.01013ZM12 9.10038C13.0295 9.10038 13.8649 9.94948 13.8649 11C13.8649 12.0505 13.0295 12.8996 12 12.8996C10.9705 12.8996 10.1351 12.0505 10.1351 11C10.1351 9.94948 10.9705 9.10038 12 9.10038ZM7.15002 7.01481C6.75078 7.11148 6.3613 7.21784 5.9867 7.33835L5.84543 7.38389L5.87744 7.53011C5.96089 7.91448 6.06438 8.3049 6.17925 8.69827L6.2917 9.08436L6.47792 8.72875C6.60963 8.47699 6.73408 8.23122 6.87321 7.98577C7.01715 7.73201 7.16698 7.51927 7.32548 7.26108L7.53389 6.92182L7.15002 7.01481ZM16.6726 7.25915C16.8319 7.51862 16.9823 7.73103 17.1268 7.98577C17.266 8.23118 17.3903 8.47693 17.5221 8.72875L17.7083 9.08436L17.8207 8.69827C17.9355 8.30533 18.0374 7.91557 18.1207 7.53237L18.1523 7.38645L18.012 7.34061C17.6438 7.2201 17.2531 7.11237 16.8484 7.01288L16.4633 6.91828L16.6726 7.25915ZM7.6213 1.47761C7.27836 1.47761 6.98248 1.54543 6.72435 1.69727C6.2881 1.95409 5.97837 2.45591 5.79065 3.10465C5.61379 3.71583 5.53923 4.47615 5.57591 5.33615L5.58477 5.50929C5.58694 5.54623 5.59138 5.58324 5.59524 5.61512C5.59926 5.64861 5.60267 5.67666 5.60471 5.70361L5.62025 5.90693L5.81312 5.84822C6.69778 5.57848 7.65353 5.36268 8.66776 5.21462L8.73237 5.2053L8.77229 5.15335C9.39778 4.34569 10.0474 3.62107 10.71 2.98441L10.855 2.84492L10.6907 2.73012C9.54376 1.92893 8.46272 1.47761 7.6213 1.47761ZM16.3787 1.47761C15.5377 1.47761 14.4561 1.92906 13.3093 2.73012L13.145 2.84492L13.29 2.98441C13.9524 3.62087 14.6002 4.34566 15.2258 5.15335L15.2657 5.2053L15.33 5.21462C16.345 5.36271 17.3017 5.57831 18.1869 5.84822L18.3798 5.90693L18.3953 5.70361C18.3973 5.67659 18.4007 5.64835 18.4048 5.61479C18.4086 5.58294 18.4131 5.54613 18.4152 5.50929C18.4702 4.5781 18.3979 3.75632 18.2094 3.10433C18.0334 2.49611 17.7503 2.01699 17.3561 1.74825L17.2757 1.69727C17.0175 1.5454 16.7206 1.47761 16.3787 1.47761ZM11.8904 3.89091C11.6131 4.14792 11.3391 4.42033 11.0609 4.71726L10.7885 5.00812L11.1838 4.99433C11.4594 4.9849 11.7262 4.97253 12 4.97253C12.2745 4.97253 12.5419 4.98487 12.8181 4.99433L13.2134 5.00812L12.9413 4.71726C12.6626 4.41967 12.3869 4.14792 12.1096 3.89091L12 3.78958L11.8904 3.89091Z" fill="#454545"/>
</svg>
