<svg width="75" height="68" viewBox="0 0 75 68" fill="none" xmlns="http://www.w3.org/2000/svg">
<path d="M51.001 0.5C52.8373 0.5 54.5188 0.909446 55.998 1.77051H55.999C60.6272 4.45785 62.5165 11.1091 61.5332 19.7021L61.4912 20.0693L61.8301 20.2178C69.7179 23.6566 74.5 28.6236 74.5 34C74.5 39.3753 69.7206 44.3435 61.8359 47.7822L61.4971 47.9307L61.5391 48.2979C62.4921 56.6227 60.7484 63.1244 56.4307 65.9658L56.0049 66.2295C54.5215 67.0882 52.8391 67.5 51.0068 67.5C47.0914 67.4999 42.4862 65.5158 37.7988 62.0195L37.5 61.7969L37.2012 62.0195C32.514 65.516 27.9144 67.5 23.999 67.5C22.278 67.5 20.6923 67.1374 19.2812 66.3848L19.001 66.2295C14.3728 63.5421 12.4835 56.8909 13.4668 48.2979L13.5088 47.9307L13.1699 47.7822C5.28212 44.3434 0.5 39.3764 0.5 34C0.5 28.6236 5.28212 23.6566 13.1699 20.2178L13.5088 20.0693L13.4668 19.7021C12.5137 11.3773 14.2576 4.87563 18.5752 2.03418L19.001 1.77051C20.4844 0.911775 22.1667 0.5 23.999 0.5C27.913 0.5 32.5137 2.484 37.2012 5.98047L37.5 6.20312L37.7988 5.98047C42.486 2.484 47.0856 0.5 51.001 0.5ZM17.7812 50.1299C17.7747 50.2137 17.7644 50.3012 17.752 50.4043C17.7401 50.5024 17.7265 50.6149 17.7197 50.7275C17.5502 53.5634 17.773 56.0647 18.3545 58.0488C18.8971 59.8999 19.77 61.3576 20.9854 62.1758L21.2334 62.3311C22.0276 62.7925 22.9423 63.0059 23.999 63.0059C26.5932 63.0059 29.9269 61.6306 33.4629 59.1914L33.9697 58.8418L33.5225 58.418C31.4793 56.4792 29.4837 54.2672 27.5537 51.8057L27.4307 51.6475L27.2324 51.6191L26.0674 51.4404C23.3689 51.0014 20.8121 50.4088 18.4238 49.6895L17.8291 49.5107L17.7812 50.1299ZM56.5762 49.6895C53.8485 50.511 50.9016 51.1682 47.7744 51.6191L47.5752 51.6475L47.4521 51.8057C45.5221 54.2672 43.5212 56.4786 41.4775 58.418L41.0303 58.8418L41.5371 59.1914C44.9627 61.5549 48.1985 62.9191 50.7559 63.002L51.001 63.0059C52.061 63.0059 52.9725 62.7924 53.7666 62.3311C55.1116 61.549 56.0667 60.0223 56.6455 58.0479C57.2271 56.064 57.4498 53.5635 57.2803 50.7275C57.2736 50.6146 57.2599 50.5014 57.248 50.4033C57.2356 50.3003 57.2252 50.2135 57.2188 50.1299L57.1709 49.5107L56.5762 49.6895ZM40.0225 52.29C39.171 52.3188 38.3463 52.3564 37.5 52.3564C36.6537 52.3564 35.829 52.3188 34.9775 52.29L33.7588 52.248L34.5977 53.1338C35.4571 54.0401 36.307 54.8677 37.1621 55.6504L37.5 55.959L37.8379 55.6504C38.693 54.8677 39.5429 54.0401 40.4023 53.1338L41.2412 52.248L40.0225 52.29ZM37.5 20.1436C34.9792 20.1436 32.4869 20.2964 30.0596 20.5635L29.8408 20.5879L29.7109 20.7656C28.2885 22.7112 26.882 24.7726 25.5615 27.0723C24.294 29.2802 23.173 31.5391 22.1855 33.7998L22.0986 34L22.1855 34.2002C23.1735 36.4618 24.2931 38.7241 25.5615 40.9336C26.8859 43.2404 28.297 45.3028 29.7236 47.2529L29.8535 47.4307L30.0732 47.4551C32.4192 47.7103 34.8917 47.8564 37.5 47.8564C40.0208 47.8564 42.5131 47.7036 44.9404 47.4365L45.1592 47.4121L45.2891 47.2344C46.7108 45.2893 48.1182 43.2338 49.4385 40.9336C50.7069 38.7241 51.8267 36.4619 52.8145 34.2002L52.9014 34L52.8145 33.7998C51.8267 31.5392 50.706 29.2802 49.4385 27.0723C48.1143 24.7659 46.7033 22.6976 45.2764 20.7471L45.1465 20.5693L44.9268 20.5449C42.5808 20.2897 40.1083 20.1436 37.5 20.1436ZM19.5527 41.0098C19.1986 42.2073 18.8849 43.3928 18.6279 44.5605L18.5303 45.0049L18.9629 45.1445C20.0982 45.5115 21.3028 45.8396 22.5508 46.1426L23.7383 46.4307L23.0928 45.3926C22.6049 44.6076 22.1423 43.9532 21.6982 43.1797C21.2688 42.4317 20.8784 41.6809 20.4736 40.917L19.8994 39.834L19.5527 41.0098ZM54.5264 40.9229C54.122 41.6862 53.7358 42.4336 53.3076 43.1797C52.8638 43.9525 52.4018 44.6004 51.9131 45.3867L51.2705 46.4199L52.4541 46.1367C53.6851 45.8423 54.886 45.5184 56.041 45.1514L56.4766 45.0127L56.3779 44.5674C56.1207 43.3974 55.801 42.2121 55.4473 41.0156L55.1006 39.8398L54.5264 40.9229ZM60.542 25.2607C59.8897 28.0238 58.9922 30.8924 57.8301 33.8154L57.7568 34L57.8301 34.1846C58.997 37.1187 59.8958 39.9964 60.5488 42.7695L60.6914 43.375L61.252 43.1055C61.3257 43.07 61.4048 43.0365 61.5 42.9961L61.7969 42.8623C64.3242 41.5922 66.3666 40.1477 67.7842 38.6484C69.1954 37.1559 70.0312 35.5605 70.0312 34C70.0312 32.4685 69.1673 30.8542 67.6797 29.3213C66.183 27.7791 64.0043 26.2648 61.2471 24.9258L60.6855 24.6533L60.542 25.2607ZM13.748 24.8945C13.6743 24.93 13.5952 24.9635 13.5 25.0039L13.2031 25.1377C10.6758 26.4078 8.63345 27.8523 7.21582 29.3516C5.80459 30.8441 4.96875 32.4395 4.96875 34C4.96875 35.5315 5.83268 37.1458 7.32031 38.6787C8.81697 40.2209 10.9957 41.7352 13.7529 43.0742L14.3145 43.3467L14.458 42.7393C15.1108 39.9743 16.0122 37.1045 17.1758 34.1787L17.249 33.9941L17.1758 33.8096C16.0096 30.8764 15.1037 28.0012 14.4512 25.2305L14.3086 24.625L13.748 24.8945ZM37.5 28.2148C40.6743 28.2148 43.25 30.8007 43.25 34C43.25 37.1993 40.6743 39.7852 37.5 39.7852C34.3257 39.7852 31.75 37.1993 31.75 34C31.75 30.8007 34.3257 28.2148 37.5 28.2148ZM22.5459 21.8633C21.3149 22.1577 20.114 22.4816 18.959 22.8486L18.5234 22.9873L18.6221 23.4326C18.8794 24.6032 19.1985 25.7922 19.5527 26.9902L19.8994 28.166L20.4736 27.083C20.8797 26.3163 21.2634 25.5678 21.6924 24.8203C22.1362 24.0475 22.5982 23.3996 23.0869 22.6133L23.7295 21.5801L22.5459 21.8633ZM51.9072 22.6074C52.3985 23.3976 52.8621 24.0445 53.3076 24.8203C53.7367 25.5677 54.12 26.3161 54.5264 27.083L55.1006 28.166L55.4473 26.9902C55.8011 25.7935 56.1152 24.6065 56.3721 23.4395L56.4697 22.9951L56.0371 22.8555C54.9018 22.4885 53.6972 22.1604 52.4492 21.8574L51.2617 21.5693L51.9072 22.6074ZM23.999 5C22.9416 5 22.0293 5.20653 21.2334 5.66895C19.8883 6.4511 18.9333 7.97937 18.3545 9.95508C17.8092 11.8164 17.5793 14.1319 17.6924 16.751L17.7197 17.2783C17.7264 17.3908 17.7401 17.5035 17.752 17.6006C17.7644 17.7026 17.7749 17.788 17.7812 17.8701L17.8291 18.4893L18.4238 18.3105C21.1515 17.489 24.0984 16.8318 27.2256 16.3809L27.4248 16.3525L27.5479 16.1943C29.4765 13.7346 31.4796 11.5278 33.5225 9.58887L33.9697 9.16406L33.4629 8.81445C29.9266 6.37446 26.5934 5 23.999 5ZM51.001 5C48.4079 5 45.0731 6.37487 41.5371 8.81445L41.0303 9.16406L41.4775 9.58887C43.52 11.5272 45.5173 13.7345 47.4463 16.1943L47.5693 16.3525L47.7676 16.3809C50.8971 16.8319 53.8468 17.4885 56.5762 18.3105L57.1709 18.4893L57.2188 17.8701C57.2251 17.7878 57.2356 17.7018 57.248 17.5996C57.2599 17.5026 57.2736 17.3905 57.2803 17.2783C57.4498 14.4424 57.227 11.9397 56.6455 9.9541C56.103 8.10178 55.2302 6.64265 54.0146 5.82422L53.7666 5.66895C52.9706 5.20646 52.0551 5 51.001 5ZM37.1621 12.3496C36.307 13.1323 35.4622 13.9619 34.6045 14.8662L33.7646 15.752L34.9834 15.71C35.8331 15.6813 36.6558 15.6436 37.5 15.6436C38.3463 15.6436 39.171 15.6812 40.0225 15.71L41.2412 15.752L40.4023 14.8662C39.5429 13.9599 38.693 13.1323 37.8379 12.3496L37.5 12.041L37.1621 12.3496Z" fill="url(#paint0_linear_86_42)" stroke="black"/>
<defs>
<linearGradient id="paint0_linear_86_42" x1="37.5" y1="0" x2="37.5" y2="68" gradientUnits="userSpaceOnUse">
<stop stop-color="#454545"/>
<stop offset="1" stop-color="#1A1A1A"/>
</linearGradient>
</defs>
</svg>
