<svg width="75" height="75" viewBox="0 0 75 75" fill="none" xmlns="http://www.w3.org/2000/svg">
<path d="M37.4531 0.5C42.3847 0.498575 47.2664 1.48874 51.8086 3.41211C56.3507 5.33554 60.4612 8.1532 63.8955 11.6973L64.3086 12.124L64.6592 11.6445C66.0246 9.77387 67.1994 7.77234 68.1689 5.6709C72.6883 19.4736 75.2757 31.0344 74.293 40.1523L74.291 40.1699C72.922 59.3229 56.9257 74.4998 37.4531 74.5H37.4521C29.4576 74.5077 21.7002 71.9033 15.3398 67.1162C16.2249 67.0524 17.0612 66.6735 17.6924 66.041C18.3858 65.346 18.7756 64.404 18.7754 63.4219C18.7752 62.4397 18.3852 61.4975 17.6914 60.8027C16.9975 60.108 16.0558 59.717 15.0742 59.7168C14.0929 59.7167 13.1521 60.1075 12.458 60.8018C11.764 61.4961 11.3738 62.4378 11.373 63.4199C11.373 63.5087 11.3766 63.5975 11.3828 63.6855C8.09182 60.4135 5.44237 56.5477 3.58203 52.2852C1.54689 47.622 0.49762 42.587 0.5 37.498C0.500039 17.0961 17.0757 0.5 37.4531 0.5ZM67.4277 8.06348C63.6241 15.9955 54.2065 22.1185 46.0537 24.0596C42.236 24.9695 38.6431 25.0518 35.0469 25.25C31.4649 25.4474 27.894 25.76 24.2334 27.168C15.8829 30.3813 11.7518 36.9912 10.876 43.3701C10.0065 49.7038 12.3478 55.9415 17.1104 58.2617C17.2844 58.3575 17.4599 58.4514 17.6367 58.542L17.7441 58.5967H17.8643C17.9072 58.5948 17.9531 58.5894 17.9561 58.5889L17.959 58.5879C17.9603 58.5876 17.9619 58.5871 17.9629 58.5869C17.9649 58.5865 17.9676 58.5865 17.9707 58.5859C17.9775 58.5846 17.9881 58.5826 18.001 58.5801C18.0267 58.575 18.0647 58.5666 18.1143 58.5566C18.2137 58.5366 18.3602 58.5074 18.5488 58.4688C18.9262 58.3914 19.4728 58.2774 20.1514 58.1328C21.5088 57.8436 23.395 57.4302 25.5098 56.9316C29.7328 55.9361 34.8935 54.5967 38.5801 53.2334C47.4561 49.9483 57.0707 42.7058 62.3809 33.835C58.5918 43.0744 50.4088 51.3793 42.1797 55.5996V55.6006C39.5185 56.969 37.1508 57.8065 34.3291 58.6885C31.5098 59.5697 28.2226 60.4988 23.7744 62.0391L23.7734 62.04C23.2211 62.232 22.7288 62.4197 22.375 62.5596C22.198 62.6295 22.0549 62.6878 21.9561 62.7285C21.9068 62.7488 21.8681 62.7644 21.8418 62.7754C21.8287 62.7809 21.8184 62.7861 21.8115 62.7891C21.8083 62.7904 21.8055 62.7912 21.8037 62.792L21.8018 62.793H21.8008L22.0781 63.7471C23.188 63.5643 24.2981 63.4408 25.1328 63.3633C25.5495 63.3246 25.8964 63.2968 26.1387 63.2793C26.2595 63.2706 26.3546 63.2649 26.4189 63.2607C26.4509 63.2587 26.4758 63.2568 26.4922 63.2559C26.5003 63.2554 26.5067 63.2551 26.5107 63.2549C26.5124 63.2548 26.5149 63.255 26.5166 63.2549L26.5156 63.2539C29.6511 63.1065 33.2274 63.2544 37.0078 63.3682C40.7787 63.4817 44.7402 63.561 48.6006 63.2715C56.3115 62.6931 63.7326 60.6335 68.4805 54.3008C73.2815 47.8986 74.317 39.5593 73.6328 31.2588C72.9481 22.9515 70.5348 14.6062 68.3525 8.12012L67.96 6.95312L67.4277 8.06348Z" fill="url(#paint0_linear_86_53)" stroke="black"/>
<defs>
<linearGradient id="paint0_linear_86_53" x1="37.5" y1="0" x2="37.5" y2="75" gradientUnits="userSpaceOnUse">
<stop stop-color="#454545"/>
<stop offset="1" stop-color="#1A1A1A"/>
</linearGradient>
</defs>
</svg>
