<svg width="24" height="24" viewBox="0 0 24 24" fill="none" xmlns="http://www.w3.org/2000/svg">
<path d="M11.9847 4.98132e-07C13.5842 -0.000461664 15.1674 0.320673 16.6405 0.944468C18.1137 1.56828 19.4468 2.48212 20.5606 3.63156L20.6946 3.76995L20.8083 3.61443C21.2511 3.00774 21.6321 2.3586 21.9466 1.67705C23.4123 6.1536 24.2515 9.90305 23.9328 12.8602L23.9321 12.8659C23.4881 19.0777 18.3001 23.9999 11.9847 24C9.39193 24.0025 6.87571 23.1578 4.81289 21.6053C5.09994 21.5846 5.37118 21.4617 5.57589 21.2565C5.80077 21.0311 5.92719 20.7256 5.92713 20.4071C5.92706 20.0885 5.80058 19.783 5.57556 19.5576C5.35052 19.3323 5.0451 19.2055 4.72675 19.2054C4.40849 19.2054 4.10337 19.3322 3.87825 19.5573C3.65317 19.7825 3.52662 20.0879 3.52636 20.4064C3.52636 20.4352 3.52753 20.464 3.52954 20.4926C2.4622 19.4314 1.60292 18.1776 0.999574 16.7952C0.339532 15.2828 -0.000770578 13.6498 1.31018e-06 11.9993C1.39588e-05 5.38252 5.37588 4.98132e-07 11.9847 4.98132e-07ZM21.7062 2.45302C20.4726 5.02557 17.4182 7.0114 14.7741 7.64095C13.5359 7.93605 12.3707 7.96274 11.2043 8.02703C10.0426 8.09105 8.8845 8.19243 7.69728 8.64908C4.98903 9.69123 3.64922 11.835 3.36517 13.9038C3.08318 15.958 3.84251 17.981 5.38713 18.7335C5.44356 18.7646 5.50048 18.795 5.55782 18.8244L5.59266 18.8422H5.63164C5.64555 18.8416 5.66044 18.8398 5.66141 18.8396L5.66235 18.8393C5.66277 18.8392 5.66329 18.8391 5.66362 18.839C5.66427 18.8389 5.66514 18.8389 5.66615 18.8387C5.66835 18.8382 5.67179 18.8376 5.67597 18.8368C5.68431 18.8351 5.69663 18.8324 5.71272 18.8292C5.74496 18.8227 5.79247 18.8132 5.85364 18.8007C5.97604 18.7756 6.15331 18.7386 6.3734 18.6917C6.81363 18.5979 7.42537 18.4638 8.11125 18.3021C9.48086 17.9793 11.1546 17.5449 12.3502 17.1027C15.2289 16.0373 18.3472 13.6884 20.0694 10.8113C18.8405 13.8079 16.1866 16.5014 13.5177 17.8701C12.6546 18.3139 11.8867 18.5859 10.9715 18.8719C10.0572 19.1577 8.99107 19.4591 7.54842 19.9586L7.54809 19.9589C7.36897 20.0212 7.20931 20.0821 7.09456 20.1274C7.03716 20.1501 6.99075 20.169 6.9587 20.1822C6.94271 20.1888 6.93016 20.1939 6.92163 20.1974C6.91738 20.1992 6.91404 20.2009 6.91181 20.2019C6.91077 20.2023 6.90986 20.2025 6.90928 20.2028L6.90866 20.2031L6.99827 20.5126C7.35824 20.4533 7.71827 20.4132 7.98898 20.3881C8.12412 20.3755 8.23663 20.3665 8.31522 20.3608C8.35439 20.358 8.38524 20.3562 8.40609 20.3548C8.41647 20.3542 8.42454 20.3536 8.42986 20.3533C8.43249 20.3531 8.43457 20.353 8.43586 20.3529C8.43641 20.3529 8.43723 20.353 8.43778 20.3529L8.43745 20.3526C9.45437 20.3048 10.6142 20.3528 11.8403 20.3897C13.0633 20.4265 14.3481 20.4522 15.6001 20.3583C18.1009 20.1707 20.5078 19.5028 22.0476 17.4489C23.6047 15.3725 23.9405 12.6679 23.7186 9.97583C23.4966 7.28157 22.7139 4.57498 22.0061 2.47139L21.8788 2.0929L21.7062 2.45302Z" fill="#454545"/>
</svg>
