<svg width="75" height="50" viewBox="0 0 75 50" fill="none" xmlns="http://www.w3.org/2000/svg">
<path d="M18.7539 22.375C27.4151 22.375 33.8761 26.9113 39.2051 30.9834L40.2568 31.79C41.7612 32.9463 43.2209 34.07 44.5283 34.9004L45.0791 35.2373C45.6653 35.5818 46.5571 35.9392 47.5508 36.1387C48.5437 36.338 49.6805 36.3876 50.7393 36.0762C52.1242 35.6687 53.1551 34.6947 53.9014 33.2021C54.5226 31.9595 56.0057 31.419 57.29 31.9639V31.9629C58.5669 32.5153 59.1921 33.9665 58.7178 35.2725C55.4587 44.2334 48.683 49.5 40.627 49.5C37.8472 49.5 35.2111 48.5318 32.3721 46.8428C29.5256 45.1493 26.5165 42.7575 22.9805 39.9463C20.5094 37.981 16.505 36.6952 12.9512 36.0615C11.1649 35.743 9.46501 35.5847 8.09277 35.5918C7.40739 35.5954 6.79209 35.6401 6.2832 35.7314C5.79078 35.8199 5.33457 35.9622 5.02148 36.2041L5.00586 36.2158L4.99219 36.2285C4.97076 36.2478 4.95022 36.2673 4.93555 36.2812C4.9191 36.2969 4.90815 36.3067 4.89844 36.3154L4.89258 36.3213C3.86682 37.2765 2.26538 37.2451 1.2666 36.2412L1.26465 36.2402L1.08496 36.041C0.245765 35.0124 0.310223 33.4841 1.27441 32.5195C7.71071 26.0795 11.4466 22.375 18.7539 22.375ZM34.3779 0.5C43.0391 0.50016 49.5002 5.03633 54.8291 9.1084L55.8799 9.91504C57.3843 11.0714 58.8448 12.195 60.1523 13.0254L60.7031 13.3623C61.2886 13.7064 62.1797 14.0658 63.1738 14.2666C64.167 14.4672 65.3043 14.5171 66.3643 14.2002C67.7484 13.7925 68.7784 12.819 69.5244 11.3271C70.1456 10.0846 71.6288 9.54324 72.9131 10.0879C74.1902 10.6402 74.8161 12.0914 74.3418 13.3975C71.0828 22.3583 64.3069 27.6248 56.251 27.625C53.4712 27.625 50.8345 26.6568 47.9951 24.9678C45.1482 23.2742 42.1382 20.8825 38.6006 18.0713C36.1281 16.1061 32.1253 14.8202 28.5723 14.1865C26.7862 13.868 25.0861 13.7097 23.7139 13.7168C23.0286 13.7204 22.4132 13.7651 21.9043 13.8564C21.4115 13.9449 20.9549 14.0873 20.6416 14.3291L20.627 14.3408L20.6133 14.3535C20.5918 14.3729 20.5704 14.3923 20.5557 14.4062C20.5395 14.4216 20.5291 14.4318 20.5195 14.4404L20.5137 14.4463C19.4871 15.3996 17.8878 15.3697 16.8896 14.3662L16.8887 14.3652L16.709 14.166C15.8696 13.1373 15.934 11.6091 16.8984 10.6445C23.3347 4.20453 27.0706 0.5 34.3779 0.5Z" fill="url(#paint0_linear_86_49)" stroke="black"/>
<defs>
<linearGradient id="paint0_linear_86_49" x1="37.5" y1="0" x2="37.5" y2="50" gradientUnits="userSpaceOnUse">
<stop stop-color="#454545"/>
<stop offset="1" stop-color="#1A1A1A"/>
</linearGradient>
</defs>
</svg>
