<svg width="24" height="16" viewBox="0 0 24 16" fill="none" xmlns="http://www.w3.org/2000/svg">
<path d="M5.92017 7.14286C8.72921 7.14286 10.8247 8.6241 12.553 9.95376L12.8941 10.2171C13.382 10.5947 13.8554 10.9616 14.2794 11.2328L14.4581 11.3428C14.6482 11.4553 14.9374 11.572 15.2597 11.6371C15.5817 11.7022 15.9504 11.7184 16.2938 11.6167C16.743 11.4837 17.0773 11.1656 17.3194 10.6782C17.5208 10.2725 18.0019 10.096 18.4184 10.2739C18.8325 10.4543 19.0353 10.9278 18.8815 11.3543C17.8244 14.2803 15.6269 16 13.0142 16C12.1126 16 11.2576 15.6839 10.3369 15.1323C9.4137 14.5794 8.43777 13.7984 7.29096 12.8804C6.48952 12.2387 5.1908 11.8188 4.03821 11.6119C3.45887 11.5079 2.90755 11.4562 2.4625 11.4585C2.24022 11.4597 2.04066 11.4743 1.87561 11.5041C1.71591 11.533 1.56795 11.5795 1.46641 11.6585L1.46134 11.6623L1.45691 11.6664C1.44996 11.6728 1.4433 11.6791 1.43854 11.6837C1.4332 11.6888 1.42965 11.692 1.4265 11.6948L1.4246 11.6968C1.09192 12.0087 0.572535 11.9984 0.248606 11.6706L0.247974 11.6703L0.189696 11.6052C-0.0824759 11.2694 -0.0615706 10.7703 0.251139 10.4553C2.33859 8.35249 3.55023 7.14286 5.92017 7.14286ZM10.9874 0C13.7965 5.22449e-05 15.892 1.48125 17.6203 2.81091L17.9611 3.0743C18.449 3.45189 18.9226 3.81878 19.3467 4.08993L19.5253 4.19993C19.7152 4.31229 20.0042 4.42965 20.3266 4.49522C20.6488 4.56072 21.0176 4.57701 21.3614 4.47353C21.8103 4.34041 22.1444 4.02253 22.3863 3.53538C22.5878 3.12967 23.0688 2.95289 23.4853 3.13074C23.8995 3.31109 24.1025 3.78495 23.9487 4.21143C22.8917 7.1374 20.6941 8.85708 18.0814 8.85714C17.1798 8.85714 16.3247 8.541 15.4038 7.98949C14.4805 7.43647 13.5043 6.65551 12.3569 5.73757C11.5551 5.09587 10.2568 4.67598 9.10452 4.46906C8.52524 4.36506 7.97386 4.31337 7.52882 4.31569C7.30656 4.31687 7.10697 4.33146 6.94192 4.36127C6.7821 4.39017 6.63401 4.43667 6.5324 4.51562L6.52766 4.51944L6.52322 4.52359C6.51625 4.52993 6.50931 4.53626 6.50454 4.5408C6.49928 4.54583 6.49591 4.54916 6.4928 4.55197L6.49092 4.55389C6.15797 4.86518 5.63927 4.85541 5.31553 4.52774L5.31524 4.52741L5.25696 4.46237C4.98472 4.12647 5.00561 3.62746 5.31839 3.31249C7.40584 1.20964 8.61748 0 10.9874 0Z" fill="#454545"/>
</svg>
