<svg width="20" height="24" viewBox="0 0 20 24" fill="none" xmlns="http://www.w3.org/2000/svg">
<path d="M15.5487 0.00263345C15.6456 -0.0169918 15.7274 0.0763775 15.7006 0.172777L14.2873 5.2431C14.2058 5.53759 14.432 5.81987 14.717 5.80256L14.7747 5.79488L16.9407 5.36243C17.0477 5.34114 17.1316 5.45629 17.0829 5.5565L10.9277 18.2641L10.8207 18.4357C10.7466 18.554 10.5754 18.4909 10.5785 18.3615L10.5817 18.3346L11.575 13.36C11.6359 13.0543 11.38 12.7901 11.0942 12.8381L11.0368 12.8517L9.73707 13.2602C9.64167 13.2902 9.55042 13.2041 9.57033 13.103L10.1954 9.93621C10.2572 9.62278 9.9851 9.34989 9.68512 9.42106L7.58076 9.9235C7.49556 9.94401 7.41483 9.87393 7.42001 9.78322L7.88487 1.66005C7.88837 1.60596 7.92214 1.55962 7.96966 1.54101L7.9908 1.53481L15.5487 0.00263345Z" fill="#525252"/>
<path d="M0.450404 6.00578L5.38449 6.89779L5.16146 10.6924C5.15456 10.8101 5.26239 10.9011 5.37599 10.8745L8.18183 10.2227C8.58181 10.1304 8.94476 10.4844 8.86227 10.8911L8.02874 15.0001C8.00237 15.1311 8.12416 15.2426 8.2513 15.2037L9.98404 14.6739L10.0606 14.6559C10.4416 14.5937 10.7828 14.9366 10.7018 15.3331L9.37732 21.7876L9.37307 21.8227C9.36903 21.9904 9.59707 22.0722 9.6958 21.9189L9.8385 21.6963L17.4551 6.39393L19.5484 6.00822C19.8661 5.94963 20.1082 6.29179 19.9505 6.57751L10.4282 23.802C10.2827 24.0647 9.9095 24.0663 9.76195 23.805L0.0511217 6.57799C-0.109391 6.2932 0.131295 5.94811 0.450404 6.00578Z" fill="#525252"/>
</svg>
