<svg width="75" height="77" viewBox="0 0 75 77" fill="none" xmlns="http://www.w3.org/2000/svg">
<path d="M0.69043 12.1474C0.0965265 11.1057 0.987231 9.84354 2.16797 10.0546L37.4385 16.3603V16.3593C37.7251 16.4111 38.0145 16.4093 38.2959 16.3583V16.3574L72.8271 10.0634C74.0032 9.84839 74.8998 11.101 74.3154 12.1464L39.084 75.1454C38.5455 76.1061 37.166 76.112 36.6201 75.1562L0.69043 12.1484V12.1474Z" fill="url(#paint0_linear_86_57)" stroke="black"/>
<path d="M54.8035 0.508789C55.1346 0.443907 55.4144 0.75259 55.323 1.07129L50.489 17.834L50.488 17.835C50.2095 18.8086 50.984 19.7408 51.9587 19.6836L52.156 19.6582L59.5642 18.2285C59.9303 18.1581 60.217 18.5388 60.0505 18.8701V18.8711L38.9988 60.8818L38.6326 61.4492L38.6316 61.4502C38.3784 61.8414 37.7937 61.6318 37.8044 61.2041L37.8152 61.1152L41.2126 44.6689C41.4208 43.6583 40.5456 42.7848 39.5681 42.9434L39.3718 42.9883L34.9265 44.3389C34.6002 44.4381 34.2881 44.1534 34.3562 43.8193L36.4939 33.3496C36.7055 32.3134 35.7748 31.4112 34.7488 31.6465L34.7478 31.6475L27.5515 33.3076H27.5505C27.2591 33.3754 26.984 33.1437 27.0017 32.8438L28.5916 5.98828L28.5906 5.9873C28.6026 5.80848 28.7191 5.65626 28.8816 5.59473L28.9539 5.57422L54.8035 0.508789Z" fill="url(#paint1_linear_86_57)" stroke="black"/>
<defs>
<linearGradient id="paint0_linear_86_57" x1="37.5" y1="9.53119" x2="37.5" y2="76.3696" gradientUnits="userSpaceOnUse">
<stop stop-color="#454545"/>
<stop offset="1" stop-color="#1A1A1A"/>
</linearGradient>
<linearGradient id="paint1_linear_86_57" x1="43.5505" y1="0" x2="43.5505" y2="62.1591" gradientUnits="userSpaceOnUse">
<stop stop-color="#454545"/>
<stop offset="1" stop-color="#1A1A1A"/>
</linearGradient>
</defs>
</svg>
