<svg width="24" height="22" viewBox="0 0 24 22" fill="none" xmlns="http://www.w3.org/2000/svg">
<path d="M0.680181 5.36039C1.33767 4.82877 2.26712 4.80994 2.94063 5.31897C4.73283 6.67281 8.14884 9.26036 11.1165 11.5096C12.6004 12.6342 13.9721 13.6743 14.973 14.4332C15.4734 14.8126 15.8813 15.1219 16.1638 15.3362C16.305 15.4433 16.4151 15.5267 16.4898 15.5833C16.5087 15.5977 16.5254 15.6103 16.5398 15.6212V21.5073C16.5398 21.9408 16.0365 22.1543 15.7318 21.8725L15.7315 21.8722C13.0798 19.4266 4.34594 11.5246 0.603848 8.14116C-0.231141 7.38665 -0.194902 6.06821 0.680181 5.36039ZM19.3289 0.130269C20.0496 0.469971 20.9534 0.902786 21.7812 1.2968L22.6753 1.7205C23.4885 2.10295 23.9998 2.91397 23.9999 3.80679V18.1584C23.9998 19.0516 23.4882 19.8627 22.687 20.245C21.6511 20.7393 20.2716 21.409 19.3307 21.8614C19.3432 21.7441 19.3507 21.6242 19.3507 21.5073V0.494887C19.3507 0.361548 19.3419 0.239199 19.3289 0.130269ZM1.66931 12.8825C2.54568 13.6867 3.52397 14.5718 4.53661 15.4806C4.09264 15.8175 3.68506 16.1292 3.32386 16.4016L2.94063 16.6888C2.26632 17.1905 1.34159 17.1793 0.678595 16.644C0.23333 16.2795 0.00433551 15.7435 0.00429269 15.2187C0.00429269 14.7154 0.198712 14.2263 0.59815 13.8619L0.598782 13.861C0.916945 13.5663 1.27632 13.2405 1.66931 12.8825ZM15.7321 0.128057C15.9389 -0.0692176 16.2423 -0.0245882 16.4172 0.166603C16.465 0.22432 16.5005 0.287634 16.5186 0.368818L16.5198 0.372927C16.5324 0.422976 16.5398 0.455101 16.5398 0.494887V6.38094C16.5357 6.38402 16.5316 6.38735 16.5271 6.39072C16.4765 6.42899 16.4015 6.48535 16.3048 6.55851C16.1113 6.70484 15.83 6.91787 15.4788 7.18379C14.7967 7.7001 13.8509 8.41649 12.7723 9.23532C11.5111 8.29083 10.1877 7.28373 8.93494 6.32627C11.7905 3.73293 14.458 1.30186 15.7302 0.130269L15.7321 0.128057Z" fill="#454545"/>
</svg>
