<svg width="75" height="69" viewBox="0 0 75 69" fill="none" xmlns="http://www.w3.org/2000/svg">
<path d="M2.59766 17.0684C4.62493 15.4253 7.49071 15.3671 9.56738 16.9404H9.56836C15.0943 21.1248 25.626 29.1223 34.7764 36.0742C39.3515 39.5502 43.581 42.7649 46.667 45.1104C48.21 46.2831 49.4676 47.2391 50.3389 47.9014C50.7743 48.2324 51.1135 48.49 51.3438 48.665C51.4023 48.7095 51.4538 48.7486 51.498 48.7822V66.9746C51.498 68.3145 49.9464 68.9746 49.0068 68.1035L49.0059 68.1025C40.8299 60.5438 13.9004 36.1204 2.3623 25.6631H2.36133C-0.213218 23.3311 -0.100511 19.2561 2.59766 17.0684ZM60.0977 0.90332C62.3199 1.95326 65.1066 3.29099 67.6592 4.50879L70.416 5.81836C72.9233 7.00041 74.4999 9.50708 74.5 12.2666V56.624C74.4999 59.3846 72.9224 61.8918 70.4521 63.0732C67.2578 64.601 63.0046 66.671 60.1035 68.0693C60.142 67.7065 60.165 67.3359 60.165 66.9746V2.03027C60.165 1.61815 60.138 1.24 60.0977 0.90332ZM5.64746 40.3174C8.34961 42.803 11.366 45.5388 14.4883 48.3477C13.1194 49.389 11.8627 50.3522 10.749 51.1943L9.56738 52.082C7.48824 53.6326 4.63701 53.598 2.59277 51.9434C1.21987 50.8168 0.513804 49.1602 0.513672 47.5381C0.513672 45.9824 1.11313 44.4708 2.34473 43.3447L2.34668 43.3418C3.32768 42.4308 4.43576 41.424 5.64746 40.3174ZM49.0078 0.896484C49.6452 0.286755 50.5809 0.424694 51.1201 1.01562C51.2676 1.19401 51.3768 1.3897 51.4326 1.64062L51.4365 1.65332C51.4752 1.80801 51.498 1.9073 51.498 2.03027V20.2227C51.4855 20.2322 51.4727 20.2425 51.459 20.2529C51.3029 20.3712 51.0717 20.5454 50.7734 20.7715C50.1768 21.2238 49.3096 21.8822 48.2266 22.7041C46.1237 24.2999 43.2073 26.5141 39.8818 29.0449C35.9931 26.1257 31.9126 23.013 28.0498 20.0537C36.8543 12.0383 45.0792 4.52443 49.002 0.90332L49.0078 0.896484Z" fill="url(#paint0_linear_86_47)" stroke="black"/>
<defs>
<linearGradient id="paint0_linear_86_47" x1="37.5" y1="0" x2="37.5" y2="69" gradientUnits="userSpaceOnUse">
<stop stop-color="#454545"/>
<stop offset="1" stop-color="#1A1A1A"/>
</linearGradient>
</defs>
</svg>
