<svg width="22" height="24" viewBox="0 0 22 24" fill="none" xmlns="http://www.w3.org/2000/svg">
<path fill-rule="evenodd" clip-rule="evenodd" d="M4.51282 12C4.51282 11.1571 4.68062 10.3225 5.00662 9.54371C5.33264 8.76497 5.81048 8.05738 6.41288 7.46137C7.01526 6.86534 7.73041 6.39255 8.51746 6.06998C9.30453 5.74742 10.1481 5.5814 11 5.5814C11.8519 5.5814 12.6955 5.74742 13.4825 6.06998C14.2697 6.39255 14.9847 6.86534 15.5872 7.46137C16.1895 8.05738 16.6673 8.76497 16.9934 9.54371C17.3194 10.3225 17.4872 11.1571 17.4872 12C17.4872 12.8429 17.3194 13.6775 16.9934 14.4563C16.6673 15.2351 16.1895 15.9426 15.5872 16.5387C14.9847 17.1347 14.2697 17.6074 13.4825 17.93C12.6955 18.2526 11.8519 18.4186 11 18.4186C10.1481 18.4186 9.30453 18.2526 8.51746 17.93C7.73041 17.6074 7.01526 17.1347 6.41288 16.5387C5.81048 15.9426 5.33264 15.2351 5.00662 14.4563C4.68062 13.6775 4.51282 12.8429 4.51282 12ZM10.9366 7.27548C10.9757 7.25619 10.995 7.25581 11 7.25581C11.005 7.25581 11.0243 7.25619 11.0634 7.27548C11.1056 7.29621 11.1713 7.33943 11.2549 7.42504C11.4271 7.60156 11.6249 7.90671 11.8099 8.36429C11.9923 8.81541 12.1443 9.37036 12.2498 10.001C12.3122 10.3732 12.3569 10.7633 12.3831 11.1628H9.61693C9.64311 10.7633 9.68778 10.3732 9.75017 10.001C9.85566 9.37036 10.0077 8.81541 10.1901 8.36429C10.3751 7.90669 10.5729 7.60156 10.7451 7.42504C10.8287 7.33943 10.8944 7.29621 10.9366 7.27548ZM7.9215 11.1628C7.94981 10.6727 8.00299 10.1905 8.08058 9.72725C8.18953 9.0766 8.34633 8.46486 8.54884 7.92257C8.20738 8.12352 7.8917 8.36614 7.60952 8.64536C7.16427 9.08589 6.81108 9.60889 6.57011 10.1845C6.43799 10.5001 6.34102 10.8281 6.28038 11.1628H7.9215ZM6.28038 12.8372H7.9215C7.94981 13.3273 8.00299 13.8095 8.08058 14.2727C8.18953 14.9234 8.34633 15.5351 8.54884 16.0774C8.20738 15.8765 7.8917 15.6338 7.60952 15.3546C7.16427 14.9142 6.81108 14.3911 6.57011 13.8155C6.43799 13.4999 6.34102 13.1719 6.28038 12.8372ZM15.7196 11.1628C15.659 10.8281 15.562 10.5001 15.4299 10.1845C15.1889 9.60889 14.8358 9.0859 14.3905 8.64536C14.1083 8.36614 13.7926 8.12352 13.4511 7.92257C13.6537 8.46486 13.8105 9.07661 13.9195 9.72725C13.997 10.1905 14.0502 10.6727 14.0785 11.1628H15.7196ZM14.0785 12.8372H15.7196C15.659 13.1719 15.562 13.4999 15.4299 13.8155C15.1889 14.3911 14.8358 14.9142 14.3905 15.3546C14.1083 15.6338 13.7926 15.8765 13.4511 16.0774C13.6537 15.5351 13.8105 14.9234 13.9195 14.2727C13.997 13.8095 14.0502 13.3273 14.0785 12.8372ZM12.3831 12.8372C12.3569 13.2367 12.3122 13.6268 12.2498 13.999C12.1443 14.6296 11.9923 15.1846 11.8099 15.6357C11.6249 16.0933 11.4271 16.3985 11.2549 16.575C11.1713 16.6606 11.1056 16.7038 11.0634 16.7245C11.0243 16.7439 11.005 16.7442 11 16.7442C10.995 16.7442 10.9757 16.7439 10.9366 16.7245C10.8944 16.7038 10.8287 16.6606 10.7451 16.575C10.5729 16.3985 10.3751 16.0933 10.1901 15.6357C10.0077 15.1846 9.85566 14.6296 9.75017 13.999C9.68778 13.6268 9.64311 13.2367 9.61693 12.8372H12.3831Z" fill="#454545"/>
<path fill-rule="evenodd" clip-rule="evenodd" d="M11 0C9.94231 0 8.93234 0.342229 7.30331 0.894274L6.48262 1.17224C4.81138 1.73827 3.52159 2.17509 2.59829 2.54622C2.13319 2.73316 1.73334 2.91424 1.41136 3.09925C1.10151 3.27728 0.790669 3.49936 0.57948 3.79707C0.370728 4.09134 0.262793 4.45311 0.194965 4.80136C0.124452 5.16342 0.0819303 5.59774 0.0544923 6.0964C2.82434e-08 7.08654 0 8.44299 0 10.2023V11.9904C0 18.8008 5.1988 22.066 8.29042 23.4023L8.321 23.4155C8.70436 23.5813 9.06468 23.737 9.47873 23.8419C9.91591 23.9527 10.3803 24 11 24C11.6197 24 12.0841 23.9527 12.5213 23.8419C12.9353 23.737 13.2957 23.5813 13.6789 23.4155L13.7096 23.4023C16.8012 22.066 22 18.8008 22 11.9904V10.2026C22 8.4431 22 7.08659 21.9455 6.0964C21.9181 5.59774 21.8756 5.16342 21.805 4.80136C21.7372 4.45311 21.6293 4.09134 21.4206 3.79707C21.2094 3.49936 20.8985 3.27728 20.5886 3.09925C20.2666 2.91424 19.8668 2.73316 19.4017 2.54622C18.4784 2.17509 17.1887 1.73827 15.5173 1.17224L14.6967 0.894274C13.0677 0.342229 12.0577 0 11 0ZM7.70634 2.52759C9.5278 1.91067 10.258 1.67442 11 1.67442C11.742 1.67442 12.4722 1.91067 14.2937 2.52759L14.9399 2.74646C16.6464 3.32444 17.891 3.74629 18.7648 4.09751C19.2009 4.27283 19.5169 4.41974 19.7387 4.5472C19.8483 4.61012 19.9238 4.66205 19.9741 4.70258C20.0168 4.73692 20.0331 4.75638 20.0355 4.75923C20.0376 4.76272 20.0517 4.7859 20.0714 4.84079C20.094 4.90342 20.1189 4.99322 20.1433 5.11821C20.1926 5.37119 20.23 5.71871 20.2557 6.18745C20.3074 7.12645 20.3077 8.43721 20.3077 10.2326V11.9904C20.3077 17.7673 15.9417 20.6104 13.0321 21.8679C12.613 22.0491 12.371 22.1516 12.1016 22.2198C11.8442 22.2849 11.5303 22.3256 11 22.3256C10.4697 22.3256 10.1558 22.2849 9.89842 22.2198C9.629 22.1516 9.38701 22.0491 8.96788 21.8679C6.05835 20.6104 1.69231 17.7673 1.69231 11.9904V10.2326C1.69231 8.43721 1.69262 7.12645 1.7443 6.18745C1.77009 5.71871 1.80743 5.37119 1.8567 5.11821C1.88105 4.99322 1.90603 4.90342 1.92859 4.84079C1.94833 4.78594 1.96235 4.76275 1.96453 4.75924C1.96687 4.75641 1.98316 4.73694 2.02588 4.70258C2.07628 4.66205 2.15174 4.61012 2.26125 4.5472C2.48307 4.41974 2.79908 4.27283 3.23523 4.09751C4.10904 3.74629 5.35357 3.32444 7.06008 2.74646L7.70634 2.52759Z" fill="#454545"/>
</svg>
