<svg width="75" height="96" viewBox="0 0 75 96" fill="none" xmlns="http://www.w3.org/2000/svg">
<path d="M74.3369 84.3145C73.7773 86.5627 71.792 88.6258 68.5986 90.3721C64.8358 92.4297 59.5253 93.9687 53.3672 94.8008C43.1146 96.1861 30.6082 95.5953 19.1738 92.2607C29.9641 94.0677 40.4942 94.2951 49.6768 93.1709C60.152 91.8884 68.9391 88.8401 74.3369 84.3145ZM10.916 74.6709V74.6719C11.8234 74.6934 12.77 74.7504 13.7471 74.8936L15.2119 75.7412C13.8269 75.7384 12.4989 75.9567 11.3916 76.3135C10.5333 76.5901 9.78217 76.9583 9.23438 77.3936C8.69881 77.8191 8.27832 78.3761 8.27832 79.0332C8.27842 79.6915 8.61143 80.2639 9.11816 80.7441C9.62242 81.2219 10.3337 81.6452 11.1895 82.0225C12.9039 82.7783 15.315 83.4013 18.1504 83.8867C23.8297 84.859 31.3252 85.2984 38.6377 85.0957C45.9436 84.8932 53.1147 84.0484 58.1279 82.4277C60.626 81.6201 62.6528 80.5999 63.8789 79.3174C64.4984 78.6694 64.9263 77.941 65.0918 77.1299C65.1822 76.6867 65.1876 76.2317 65.1162 75.7656C65.4439 75.952 65.7897 76.1694 66.1143 76.4316C66.8201 77.0021 67.334 77.707 67.334 78.6133C67.3338 80.0637 66.4279 81.4172 64.6357 82.6562C62.8472 83.8927 60.2581 84.9538 57.1025 85.8213C50.7986 87.5543 42.3658 88.4802 33.9121 88.5742C25.4584 88.6682 17.0247 87.9293 10.7207 86.3545C7.56488 85.5661 4.97656 84.5763 3.18945 83.4004C1.39778 82.2214 0.5 80.9193 0.5 79.5127C0.500183 78.5518 1.36573 77.3136 3.21777 76.2998C5.03322 75.3062 7.67639 74.6051 10.916 74.6709ZM23.5068 69.5625C23.3676 69.8941 23.3269 70.2338 23.4199 70.5752C23.5921 71.2066 24.1679 71.622 24.8154 71.9033C26.1342 72.4762 28.3124 72.7354 30.7646 72.7627C35.5834 72.8163 41.7958 71.972 45.5107 70.4717L50.6826 73.7852C48.42 74.9949 45.4525 75.9056 42.2021 76.5107C38.6071 77.18 34.7019 77.4728 31.0947 77.4072C27.4818 77.3416 24.1966 76.9168 21.832 76.168C20.6476 75.7928 19.7272 75.3462 19.1123 74.8486C18.5027 74.3552 18.2354 73.8489 18.2354 73.332C18.2354 72.6315 18.7637 71.6832 19.875 70.8828C20.7756 70.2343 22.0136 69.7212 23.5068 69.5625ZM20.4443 59.625C20.2386 59.948 20.1235 60.2828 20.124 60.6289C20.1253 61.3857 20.6695 61.9451 21.3457 62.3418C22.0369 62.7472 22.9981 63.0655 24.127 63.3115C25.2633 63.5592 26.6013 63.7395 28.0664 63.8525C33.8363 64.2976 41.7351 63.7081 47.4023 61.9346L52.0771 64.8223C44.1059 67.7446 34.9114 68.4353 27.6045 67.8604C23.8063 67.5615 20.5453 66.9234 18.249 66.0957C17.0982 65.6809 16.2164 65.228 15.6328 64.7666C15.0414 64.2989 14.8312 63.8855 14.8311 63.5508C14.8311 63.163 15.0279 62.7131 15.4482 62.2295C15.8642 61.7509 16.4628 61.282 17.1709 60.8691C18.1773 60.2824 19.3547 59.8364 20.4443 59.625ZM63.6338 48.8066C65.6111 48.6502 67.4118 49.1709 68.7119 50.3047C70.0057 51.4331 70.8574 53.2152 70.8574 55.6895C70.8573 61.1238 67.1847 64.2913 63.3779 66.127C61.4797 67.0423 59.5754 67.61 58.1426 67.9492C58.0587 67.9691 57.976 67.9866 57.8955 68.0049C58.8229 67.2833 60.0122 66.2922 61.2012 65.1045C63.7193 62.5889 66.3643 59.0859 66.3643 55.3887C66.3641 53.6356 65.3164 52.0418 63.7383 51.0254C62.6774 50.3421 61.3625 49.9089 59.917 49.8467C61.1605 49.246 62.4326 48.9017 63.6338 48.8066ZM21.875 49.0586C20.7762 49.4283 19.6518 49.8667 18.7939 50.3457C18.3665 50.5844 17.9802 50.8463 17.6953 51.1318C17.417 51.4108 17.1748 51.7744 17.1748 52.209C17.175 52.6331 17.5098 52.8835 17.7363 53.0107C17.9954 53.1563 18.343 53.2729 18.7393 53.3711C19.54 53.5696 20.6733 53.7241 22.04 53.8408C24.7814 54.0748 28.5477 54.1619 32.6738 54.1074C40.0967 54.0094 48.7418 53.4489 54.751 52.4453C54.1303 52.9227 53.4148 53.4517 52.7285 53.9482C52.0499 54.4392 51.4108 54.8917 50.9414 55.2217C50.7068 55.3866 50.5143 55.5204 50.3809 55.6133C50.332 55.6473 50.2911 55.6758 50.2588 55.6982C41.2753 57.443 30.5119 58.2094 21.9922 57.8291C17.7119 57.6381 14.028 57.1585 11.4287 56.3828C10.1265 55.9942 9.13169 55.5413 8.47266 55.0391C7.8188 54.5407 7.5459 54.0367 7.5459 53.5283C7.54615 52.4949 8.45903 51.5973 10.2598 50.8555C12.0117 50.1338 14.3779 49.6598 16.7832 49.3525C18.7613 49.0998 20.7424 48.9653 22.3887 48.8916C22.2184 48.9462 22.0465 49.0009 21.875 49.0586ZM57.0645 17.9307C55.7006 18.8194 53.8727 20.054 52.0225 21.4365C50.1748 22.8172 48.2921 24.3543 46.8242 25.8477C46.0904 26.5942 45.4513 27.3394 44.9707 28.0566C44.4938 28.7685 44.1509 29.4863 44.0518 30.1738C43.8576 31.5209 44.1957 32.7908 44.7295 33.999C45.2573 35.1938 46.0103 36.3971 46.6699 37.5664C48.0148 39.9505 49.0478 42.3147 47.9609 45.127C46.9627 47.7091 44.8584 49.3285 42.9551 50.3096C42.3566 50.618 41.7818 50.8574 41.2773 51.0449C41.4386 50.8575 41.6069 50.6562 41.7725 50.4385C42.6537 49.2797 43.5685 47.6547 43.6152 45.834L43.6123 45.4678C43.5649 44.2553 43.1135 43.151 42.5107 42.1055C41.9133 41.0693 41.1335 40.0362 40.4131 39.0078C38.949 36.9179 37.6549 34.7388 37.8789 31.9043C38.3924 25.4207 43.6933 21.7917 49.0664 19.7705C51.7368 18.766 54.3799 18.1775 56.3584 17.8408C56.7588 17.7727 57.1318 17.7158 57.4717 17.667C57.3412 17.7512 57.2052 17.8389 57.0645 17.9307ZM44.833 3.19336C46.2312 6.30547 46.2731 9.10578 45.5166 11.6797C44.5201 15.0698 42.123 18.1262 39.416 21.0107C38.0639 22.4515 36.6553 23.8291 35.3145 25.1855C33.9803 26.5351 32.7167 27.8604 31.6875 29.1709C29.6438 31.7733 28.4095 34.464 29.5742 37.2773C31.6021 42.1771 33.1959 45.2168 35.0547 48.2607C34.9142 48.1541 34.766 48.0454 34.6152 47.9287C33.122 46.7723 31.1563 45.1357 29.2578 43.2129C27.3566 41.2874 25.5388 39.0907 24.3242 36.8154C23.1084 34.5379 22.5223 32.2306 23 30.0527C23.5251 27.6656 25.3516 25.3742 27.8311 23.0557C30.3097 20.7379 33.327 18.4905 36.1807 16.1221C39.0063 13.777 41.6554 11.324 43.2578 8.66016C44.2916 6.94148 44.8938 5.12427 44.833 3.19336Z" fill="url(#paint0_linear_85_15)" stroke="black"/>
<defs>
<linearGradient id="paint0_linear_85_15" x1="37.5" y1="0" x2="37.5" y2="96" gradientUnits="userSpaceOnUse">
<stop stop-color="#454545"/>
<stop offset="1" stop-color="#1A1A1A"/>
</linearGradient>
</defs>
</svg>
