<svg width="75" height="75" viewBox="0 0 75 75" fill="none" xmlns="http://www.w3.org/2000/svg">
<mask id="path-1-inside-1_85_20" fill="white">
<path d="M64.3972 0C62.0192 0 59.7386 0.946062 58.0571 2.63006C56.3756 4.31406 55.4309 6.59806 55.4309 8.97959C55.4309 11.3611 56.3756 13.6451 58.0571 15.3291C59.7386 17.0131 62.0192 17.9592 64.3972 17.9592C66.7752 17.9592 69.0558 17.0131 70.7373 15.3291C72.4187 13.6451 73.3634 11.3611 73.3634 8.97959C73.3634 6.59806 72.4187 4.31406 70.7373 2.63006C69.0558 0.946062 66.7752 0 64.3972 0ZM36.1738 0.0223214C35.4484 0.0500765 34.72 0.0972449 33.9864 0.165816C31.8867 0.363367 29.7943 0.736658 27.7712 1.2787L28.6118 4.43559C30.4604 3.94089 32.3701 3.5964 34.2889 3.41518C34.9606 3.35314 35.6313 3.30893 36.2948 3.28444L36.1738 0.0223214ZM44.6529 0.679209L44.0321 3.88712C46.5768 4.38018 49.0678 5.16809 51.4349 6.22768L52.7659 3.24617C50.1705 2.08536 47.4406 1.22125 44.6529 0.679209ZM19.8588 4.4037C17.3581 5.73921 15.0056 7.36686 12.8635 9.23788L15.0064 11.6964C16.961 9.98704 19.1129 8.50431 21.3935 7.28635L19.8588 4.4037ZM37.4984 9.79592C22.2167 9.79592 9.78455 22.2465 9.78455 37.551C9.78455 52.8555 22.2167 65.3061 37.4984 65.3061C52.7802 65.3061 65.2123 52.8555 65.2123 37.551C65.2123 22.2465 52.7802 9.79592 37.4984 9.79592ZM7.13224 15.523C5.46452 17.8299 4.0569 20.323 2.9516 22.9369L5.95415 24.2092C6.96326 21.8222 8.24918 19.5455 9.77181 17.4394L7.13224 15.523ZM45.6495 19.5918C50.1506 19.5918 53.8007 23.2473 53.8007 27.7551C53.8007 32.2629 50.1506 35.9184 45.6495 35.9184C41.1485 35.9184 37.4984 32.2629 37.4984 27.7551C37.4984 23.2473 41.1485 19.5918 45.6495 19.5918ZM70.9372 20.5357L68.0301 22.0153C69.2055 24.3288 70.1123 26.7793 70.7334 29.2985L73.8983 28.5204C73.2185 25.7596 72.2234 23.0712 70.9372 20.5357ZM0.550838 31.1097C0.185668 33.2142 0 35.3675 0 37.5096C0 38.2051 0.0181872 38.9041 0.0573127 39.6078L3.31458 39.426C3.27872 38.7844 3.26045 38.1447 3.26045 37.5096C3.26045 35.5536 3.43097 33.5877 3.76353 31.6677L0.550838 31.1097ZM74.8281 34.0306L71.5835 34.3367C71.6862 35.4143 71.7395 36.51 71.7395 37.5925C71.7395 39.0978 71.6375 40.6186 71.4402 42.1142L74.672 42.5446C74.8889 40.9087 74.9984 39.2415 75 37.5925C75 36.4088 74.9389 35.2094 74.8281 34.0306ZM19.5659 35.9184H22.8264V48.9796H29.3473V52.2449H19.5659V35.9184ZM50.2505 38.0166C53.3968 38.0166 55.4309 40.0676 55.4309 43.2398V52.2449H52.1705V51.9739C50.8369 52.4359 49.4931 52.5829 48.8622 52.5829C46.65 52.5829 44.3568 51.0073 44.3568 48.3673C44.3568 45.1282 47.6334 44.2279 49.7983 43.632C50.6575 43.3953 51.6779 43.1021 52.1131 42.787C51.9827 41.7633 51.4242 41.2819 50.2505 41.2819C49.5788 41.2819 48.1936 41.557 48.1936 42.4043H44.9331C44.9331 39.5243 47.6079 38.0166 50.2505 38.0166ZM30.9775 39.1837H34.238V48.1505C34.238 48.9636 34.8971 49.6237 35.709 49.6237H36.1165C37.7777 49.6237 39.1286 48.2724 39.1286 46.6103V39.1837H42.3891V46.6103V52.2449H39.1286V52.0855C38.2304 52.5834 37.2137 52.889 36.1165 52.889H35.709C33.099 52.889 30.9775 50.7628 30.9775 48.1505V39.1837ZM52.1705 46.3202C51.6749 46.4867 51.1698 46.6374 50.6612 46.7761C48.6006 47.3459 47.6173 47.7273 47.6173 48.3673C47.6173 49.2931 48.8492 49.3176 48.8622 49.3176C49.9121 49.3176 51.4923 48.8927 52.1705 48.3833V46.3202ZM4.61049 47.0982L1.47739 48.0006C2.26316 50.7304 3.36489 53.3777 4.75058 55.861L7.59711 54.2698C6.33206 52.002 5.32779 49.5896 4.61049 47.0982ZM69.5426 49.6524C68.6264 52.0785 67.4303 54.4057 65.9892 56.5657L68.702 58.3801C70.2784 56.0128 71.5886 53.4631 72.5929 50.8068L69.5426 49.6524ZM12.1248 60.5772L9.71131 62.771C11.6187 64.8755 13.7689 66.7636 16.0985 68.3865L17.9612 65.7079C15.8321 64.2222 13.8675 62.4988 12.1248 60.5772ZM60.9775 62.5032C59.0881 64.2877 57.0004 65.8574 54.7686 67.1652L56.4148 69.9841C58.8601 68.5522 61.1471 66.8347 63.2159 64.8788L60.9775 62.5032ZM24.7941 69.3973L23.5842 72.4267C26.2219 73.4863 28.979 74.2405 31.7862 74.6716L32.283 71.4477C29.7219 71.0542 27.2019 70.3639 24.7941 69.3973ZM47.6682 70.2966C45.4201 70.9937 43.0752 71.4616 40.7015 71.6869L40.0265 71.7443L40.294 75L41.0104 74.9362C43.6057 74.6897 46.1697 74.1793 48.633 73.4152L47.6682 70.2966Z"/>
</mask>
<path d="M64.3972 0C62.0192 0 59.7386 0.946062 58.0571 2.63006C56.3756 4.31406 55.4309 6.59806 55.4309 8.97959C55.4309 11.3611 56.3756 13.6451 58.0571 15.3291C59.7386 17.0131 62.0192 17.9592 64.3972 17.9592C66.7752 17.9592 69.0558 17.0131 70.7373 15.3291C72.4187 13.6451 73.3634 11.3611 73.3634 8.97959C73.3634 6.59806 72.4187 4.31406 70.7373 2.63006C69.0558 0.946062 66.7752 0 64.3972 0ZM36.1738 0.0223214C35.4484 0.0500765 34.72 0.0972449 33.9864 0.165816C31.8867 0.363367 29.7943 0.736658 27.7712 1.2787L28.6118 4.43559C30.4604 3.94089 32.3701 3.5964 34.2889 3.41518C34.9606 3.35314 35.6313 3.30893 36.2948 3.28444L36.1738 0.0223214ZM44.6529 0.679209L44.0321 3.88712C46.5768 4.38018 49.0678 5.16809 51.4349 6.22768L52.7659 3.24617C50.1705 2.08536 47.4406 1.22125 44.6529 0.679209ZM19.8588 4.4037C17.3581 5.73921 15.0056 7.36686 12.8635 9.23788L15.0064 11.6964C16.961 9.98704 19.1129 8.50431 21.3935 7.28635L19.8588 4.4037ZM37.4984 9.79592C22.2167 9.79592 9.78455 22.2465 9.78455 37.551C9.78455 52.8555 22.2167 65.3061 37.4984 65.3061C52.7802 65.3061 65.2123 52.8555 65.2123 37.551C65.2123 22.2465 52.7802 9.79592 37.4984 9.79592ZM7.13224 15.523C5.46452 17.8299 4.0569 20.323 2.9516 22.9369L5.95415 24.2092C6.96326 21.8222 8.24918 19.5455 9.77181 17.4394L7.13224 15.523ZM45.6495 19.5918C50.1506 19.5918 53.8007 23.2473 53.8007 27.7551C53.8007 32.2629 50.1506 35.9184 45.6495 35.9184C41.1485 35.9184 37.4984 32.2629 37.4984 27.7551C37.4984 23.2473 41.1485 19.5918 45.6495 19.5918ZM70.9372 20.5357L68.0301 22.0153C69.2055 24.3288 70.1123 26.7793 70.7334 29.2985L73.8983 28.5204C73.2185 25.7596 72.2234 23.0712 70.9372 20.5357ZM0.550838 31.1097C0.185668 33.2142 0 35.3675 0 37.5096C0 38.2051 0.0181872 38.9041 0.0573127 39.6078L3.31458 39.426C3.27872 38.7844 3.26045 38.1447 3.26045 37.5096C3.26045 35.5536 3.43097 33.5877 3.76353 31.6677L0.550838 31.1097ZM74.8281 34.0306L71.5835 34.3367C71.6862 35.4143 71.7395 36.51 71.7395 37.5925C71.7395 39.0978 71.6375 40.6186 71.4402 42.1142L74.672 42.5446C74.8889 40.9087 74.9984 39.2415 75 37.5925C75 36.4088 74.9389 35.2094 74.8281 34.0306ZM19.5659 35.9184H22.8264V48.9796H29.3473V52.2449H19.5659V35.9184ZM50.2505 38.0166C53.3968 38.0166 55.4309 40.0676 55.4309 43.2398V52.2449H52.1705V51.9739C50.8369 52.4359 49.4931 52.5829 48.8622 52.5829C46.65 52.5829 44.3568 51.0073 44.3568 48.3673C44.3568 45.1282 47.6334 44.2279 49.7983 43.632C50.6575 43.3953 51.6779 43.1021 52.1131 42.787C51.9827 41.7633 51.4242 41.2819 50.2505 41.2819C49.5788 41.2819 48.1936 41.557 48.1936 42.4043H44.9331C44.9331 39.5243 47.6079 38.0166 50.2505 38.0166ZM30.9775 39.1837H34.238V48.1505C34.238 48.9636 34.8971 49.6237 35.709 49.6237H36.1165C37.7777 49.6237 39.1286 48.2724 39.1286 46.6103V39.1837H42.3891V46.6103V52.2449H39.1286V52.0855C38.2304 52.5834 37.2137 52.889 36.1165 52.889H35.709C33.099 52.889 30.9775 50.7628 30.9775 48.1505V39.1837ZM52.1705 46.3202C51.6749 46.4867 51.1698 46.6374 50.6612 46.7761C48.6006 47.3459 47.6173 47.7273 47.6173 48.3673C47.6173 49.2931 48.8492 49.3176 48.8622 49.3176C49.9121 49.3176 51.4923 48.8927 52.1705 48.3833V46.3202ZM4.61049 47.0982L1.47739 48.0006C2.26316 50.7304 3.36489 53.3777 4.75058 55.861L7.59711 54.2698C6.33206 52.002 5.32779 49.5896 4.61049 47.0982ZM69.5426 49.6524C68.6264 52.0785 67.4303 54.4057 65.9892 56.5657L68.702 58.3801C70.2784 56.0128 71.5886 53.4631 72.5929 50.8068L69.5426 49.6524ZM12.1248 60.5772L9.71131 62.771C11.6187 64.8755 13.7689 66.7636 16.0985 68.3865L17.9612 65.7079C15.8321 64.2222 13.8675 62.4988 12.1248 60.5772ZM60.9775 62.5032C59.0881 64.2877 57.0004 65.8574 54.7686 67.1652L56.4148 69.9841C58.8601 68.5522 61.1471 66.8347 63.2159 64.8788L60.9775 62.5032ZM24.7941 69.3973L23.5842 72.4267C26.2219 73.4863 28.979 74.2405 31.7862 74.6716L32.283 71.4477C29.7219 71.0542 27.2019 70.3639 24.7941 69.3973ZM47.6682 70.2966C45.4201 70.9937 43.0752 71.4616 40.7015 71.6869L40.0265 71.7443L40.294 75L41.0104 74.9362C43.6057 74.6897 46.1697 74.1793 48.633 73.4152L47.6682 70.2966Z" fill="url(#paint0_linear_85_20)" stroke="black" stroke-width="2" mask="url(#path-1-inside-1_85_20)"/>
<defs>
<linearGradient id="paint0_linear_85_20" x1="37.5" y1="0" x2="37.5" y2="75" gradientUnits="userSpaceOnUse">
<stop stop-color="#454545"/>
<stop offset="1" stop-color="#1A1A1A"/>
</linearGradient>
</defs>
</svg>
