<svg width="84" height="93" viewBox="0 0 84 93" fill="none" xmlns="http://www.w3.org/2000/svg">
<path d="M38.1035 2.01172C40.5065 0.666936 43.4935 0.666936 45.8965 2.01172V2.01074L79.5752 20.9404L79.5762 20.9414C81.9991 22.2999 83.5 24.8455 83.5 27.5674V65.4268C83.5 68.1487 81.9991 70.6942 79.5762 72.0527L79.5752 72.0537L45.8965 90.9824C44.6918 91.6582 43.3461 91.9971 42 91.9971C40.6539 91.9971 39.3082 91.6582 38.1035 90.9824H38.1025L4.4248 72.0537L4.42383 72.0527C2.00088 70.6942 0.5 68.1487 0.5 65.4268V27.5674C0.5 24.8455 2.00088 22.2999 4.42383 20.9414L4.4248 20.9404L38.1025 2.01074L38.1035 2.01172ZM42 21.9971C28.4895 21.9971 17.5 32.9866 17.5 46.4971C17.5 60.0076 28.4895 70.9971 42 70.9971C49.72 70.9971 56.8515 67.4154 61.4844 61.3154L61.8271 60.8633L61.3359 60.5801L52.5703 55.5098L52.2227 55.3086L51.9512 55.6055C49.4124 58.3853 45.8037 59.9971 42 59.9971C34.5574 59.9971 28.5 53.9397 28.5 46.4971C28.5 39.0545 34.5574 32.9971 42 32.9971C45.8037 32.9971 49.4124 34.6089 51.9512 37.3887L52.2227 37.6855L52.5703 37.4844L61.3359 32.4141L61.8271 32.1309L61.4844 31.6787C56.8515 25.5787 49.72 21.9971 42 21.9971ZM57.5 43.9971H53.5V48.9971H57.5V52.9971H62.5V48.9971H66.5V43.9971H62.5V39.9971H57.5V43.9971ZM71.5 43.9971H67.5V48.9971H71.5V52.9971H76.5V48.9971H80.5V43.9971H76.5V39.9971H71.5V43.9971Z" fill="url(#paint0_linear_83_8)" stroke="black"/>
<defs>
<linearGradient id="paint0_linear_83_8" x1="42" y1="0.50293" x2="42" y2="92.4971" gradientUnits="userSpaceOnUse">
<stop stop-color="#454545"/>
<stop offset="1" stop-color="#1A1A1A"/>
</linearGradient>
</defs>
</svg>
