<svg width="75" height="84" viewBox="0 0 84 94" fill="none" xmlns="http://www.w3.org/2000/svg">
<path d="M83.4541 0.5L76.1191 83.7197L42 93.4795L7.87988 83.7197L0.545898 0.5H83.4541ZM18.7734 19.8271L19.5166 29.7217L19.5518 30.1846H53.5635L52.9043 39.0791H30.1055L30.1318 39.6045L30.6338 49.499L30.6582 49.9736H52.333L51.6562 60.2393L42 63.5361L32.3525 60.2422L32.125 54.4014L32.1064 53.9209H21.2148L21.2441 54.4482L21.9873 68.0537L22.0059 68.3945L22.3301 68.501L41.8438 74.9365L42 74.9883L42.1562 74.9365L61.6699 68.501L61.9922 68.3955L62.0127 68.0566L63.75 39.6104L64.9854 19.8203L65.0186 19.2891H18.7334L18.7734 19.8271Z" fill="url(#paint0_linear_84_5)" stroke="black"/>
<defs>
<linearGradient id="paint0_linear_84_5" x1="42" y1="0" x2="42" y2="94" gradientUnits="userSpaceOnUse">
<stop stop-color="#454545"/>
<stop offset="1" stop-color="#1A1A1A"/>
</linearGradient>
</defs>
</svg>
