<svg width="21" height="24" viewBox="0 0 21 24" fill="none" xmlns="http://www.w3.org/2000/svg">
<path d="M21 0L19.1421 21.4808L10.5 24L1.85764 21.4808L0 0H21ZM4.61688 4.98874L4.80513 7.54275L4.81405 7.66223H13.4289L13.262 9.95809H7.48722L7.49388 10.0937L7.62103 12.6477L7.62721 12.7702H13.1173L12.9458 15.42L10.5 16.271L8.05636 15.4207L7.99874 13.9131L7.99403 13.7891H5.23527L5.24269 13.9252L5.43094 17.4371L5.43565 17.525L5.51777 17.5525L10.4604 19.2137L10.5 19.227L10.5396 19.2137L15.4822 17.5525L15.5639 17.5253L15.5691 17.4378L16.0091 10.0952L16.322 4.98698L16.3304 4.84987H4.60675L4.61688 4.98874Z" fill="#454545"/>
</svg>
