<svg width="24" height="26" viewBox="0 0 24 26" fill="none" xmlns="http://www.w3.org/2000/svg">
<path d="M22.5066 8.7796L15.6023 1.5385C14.6857 0.591935 13.4621 0.0433211 12.1763 0.00245795C10.8905 -0.0384052 9.63746 0.431498 8.6679 1.31812L11.4897 4.27753C11.7755 4.17052 12.0819 4.13784 12.3824 4.1823C12.683 4.22675 12.9687 4.34702 13.2152 4.53277C13.4617 4.71852 13.6615 4.96421 13.7976 5.24877C13.9336 5.53332 14.0018 5.84824 13.9963 6.16651V6.26096C13.9867 6.46576 13.9462 6.66767 13.8762 6.85914L17.5535 10.6371C17.7309 10.5638 17.9184 10.5213 18.1088 10.5112C18.4948 10.5112 18.872 10.6312 19.1929 10.856C19.5138 11.0809 19.7639 11.4005 19.9115 11.7744C20.0592 12.1484 20.0979 12.5598 20.0226 12.9568C19.9473 13.3538 19.7615 13.7184 19.4886 14.0046C19.2157 14.2908 18.868 14.4857 18.4895 14.5646C18.111 14.6436 17.7187 14.6031 17.3621 14.4482C17.0056 14.2933 16.7009 14.031 16.4865 13.6945C16.2721 13.358 16.1576 12.9623 16.1576 12.5576C16.1672 12.3579 16.2078 12.1612 16.2777 11.9751L12.9006 8.43329V16.6661C13.2272 16.8291 13.5032 17.0854 13.6971 17.4057C13.8909 17.7259 13.9946 18.0971 13.9963 18.4764C13.9963 19.0191 13.7907 19.5396 13.4248 19.9234C13.0588 20.3072 12.5625 20.5228 12.045 20.5228C11.5275 20.5228 11.0312 20.3072 10.6653 19.9234C10.2994 19.5396 10.0938 19.0191 10.0938 18.4764C10.0963 18.1172 10.191 17.7655 10.368 17.458C10.545 17.1505 10.7976 16.8987 11.0994 16.7291V7.9453C10.8063 7.78087 10.5593 7.53892 10.3829 7.24346C10.2065 6.948 10.1068 6.60929 10.0938 6.26096C10.1034 6.06126 10.144 5.86454 10.2139 5.67852L7.36208 2.68763L1.49339 8.7796C1.02006 9.27395 0.644477 9.86148 0.388201 10.5085C0.131924 11.1554 0 11.8491 0 12.5497C0 13.2503 0.131924 13.944 0.388201 14.5909C0.644477 15.2379 1.02006 15.8254 1.49339 16.3198L8.39773 23.5766C8.8691 24.073 9.4293 24.4669 10.0462 24.7357C10.6631 25.0045 11.3245 25.1429 11.9925 25.1429C12.6605 25.1429 13.3219 25.0045 13.9388 24.7357C14.5557 24.4669 15.1159 24.073 15.5873 23.5766L22.5066 16.3355C22.9799 15.8412 23.3555 15.2537 23.6118 14.6067C23.8681 13.9597 24 13.266 24 12.5654C24 11.8649 23.8681 11.1712 23.6118 10.5242C23.3555 9.87722 22.9799 9.28969 22.5066 8.79534V8.7796Z" fill="#454545"/>
</svg>
