<svg width="21" height="24" viewBox="0 0 21 24" fill="none" xmlns="http://www.w3.org/2000/svg">
<path d="M0.376693 0H20.6233C20.7299 2.45783e-05 20.8311 0.0453658 20.9007 0.123682L20.9015 0.124812C20.9733 0.20389 21.0085 0.309476 20.9983 0.416793L20.998 0.417921L19.1761 21.2358C19.1611 21.3949 19.0532 21.5269 18.9023 21.5721L10.6009 23.985L10.5984 23.9856C10.5668 23.9954 10.5343 24 10.4981 24C10.4608 24 10.4272 23.9951 10.3994 23.9861L10.3972 23.9856L10.3953 23.985L2.09962 21.5721C1.94749 21.5265 1.83892 21.3937 1.82581 21.2364V21.2358L0.00201208 0.417921L0.00173483 0.416793C-0.00847337 0.309476 0.0267025 0.20389 0.0984537 0.124812L0.0992849 0.123682C0.168894 0.0453661 0.270091 2.45783e-05 0.376693 0ZM3.99657 4.64938L4.68276 12.4668L4.69439 12.5984H13.5005L13.222 15.7336L10.5258 16.3196L7.77774 15.7331L7.67799 14.584L7.66633 14.4522H4.85734L4.87093 14.6095L5.15222 17.8458L5.16079 17.9429L5.25254 17.9715L10.4022 19.5607L10.4526 19.5774L10.4947 19.5912L10.5369 19.5782L15.7494 17.9735L15.8411 17.9452L15.8497 17.8481L16.5462 9.90503L16.5597 9.74747H7.25343L7.04555 7.34892H16.7693L16.7809 7.21735L17.0056 4.64938L17.0192 4.49182H3.98272L3.99657 4.64938Z" fill="#454545"/>
</svg>
