<svg width="75" height="84" viewBox="0 0 75 84" fill="none" xmlns="http://www.w3.org/2000/svg">
<path d="M1.82715 0.5H73.1729C73.5485 0.500085 73.9051 0.65689 74.1504 0.927734L74.1533 0.931641C74.4062 1.20512 74.5301 1.57027 74.4941 1.94141L74.4932 1.94531L68.0732 73.9404C68.0204 74.4906 67.6402 74.9471 67.1084 75.1035L37.8555 83.4482L37.8467 83.4502C37.7354 83.4841 37.621 83.5 37.4932 83.5C37.3618 83.5 37.2433 83.4832 37.1455 83.4521L37.1377 83.4502L37.1309 83.4482L7.89844 75.1035C7.36239 74.9459 6.97979 74.4865 6.93359 73.9424V73.9404L0.506836 1.94531L0.505859 1.94141C0.469887 1.57027 0.593841 1.20512 0.84668 0.931641L0.849609 0.927734C1.0949 0.656891 1.4515 0.500085 1.82715 0.5ZM14.583 16.5791L17.001 43.6143L17.042 44.0693H48.0732L47.0918 54.9121L37.5908 56.9385L27.9072 54.9102L27.5557 50.9365L27.5146 50.4805H17.6162L17.6641 51.0244L18.6553 62.2168L18.6855 62.5527L19.0088 62.6514L37.1553 68.1475V68.1484L37.333 68.2051L37.4814 68.2529L37.6299 68.208L55.998 62.6582L56.3213 62.5605L56.3516 62.2246L58.8057 34.7549L58.8535 34.21H26.0596L25.3271 25.915H59.5918L59.6328 25.46L60.4248 16.5791L60.4727 16.0342H14.5342L14.583 16.5791Z" fill="url(#paint0_linear_85_10)" stroke="black"/>
<defs>
<linearGradient id="paint0_linear_85_10" x1="37.5" y1="0" x2="37.5" y2="84" gradientUnits="userSpaceOnUse">
<stop stop-color="#454545"/>
<stop offset="1" stop-color="#1A1A1A"/>
</linearGradient>
</defs>
</svg>
