<svg width="19" height="24" viewBox="0 0 19 24" fill="none" xmlns="http://www.w3.org/2000/svg">
<path d="M19 21.092C18.856 21.6765 18.3451 22.2129 17.5234 22.667C16.5551 23.2019 15.1886 23.6021 13.604 23.8184C10.9658 24.1786 7.74756 24.025 4.80522 23.158C7.58182 23.6278 10.2915 23.687 12.6544 23.3947C15.3499 23.0612 17.611 22.2686 19 21.092ZM2.68029 18.5846C2.91378 18.5902 3.15736 18.6052 3.4088 18.6425L3.78572 18.8628C3.42933 18.8621 3.0876 18.9189 2.80267 19.0116C2.58181 19.0836 2.38852 19.1793 2.24756 19.2925C2.10975 19.4031 2.00155 19.5479 2.00155 19.7188C2.00157 19.8899 2.08727 20.0388 2.21766 20.1636C2.34742 20.2879 2.53045 20.3979 2.75066 20.496C3.19182 20.6925 3.81225 20.8545 4.54187 20.9807C6.00329 21.2335 7.93206 21.3478 9.81374 21.2951C11.6937 21.2424 13.539 21.0228 14.829 20.6014C15.4719 20.3914 15.9934 20.1261 16.3089 19.7927C16.4683 19.6242 16.5784 19.4348 16.621 19.2239C16.6443 19.1087 16.6457 18.9904 16.6273 18.8692C16.7116 18.9177 16.8006 18.9742 16.8841 19.0424C17.0657 19.1907 17.198 19.374 17.198 19.6096C17.1979 19.9867 16.9648 20.3386 16.5036 20.6608C16.0434 20.9823 15.3772 21.2582 14.5652 21.4837C12.943 21.9343 10.7731 22.1751 8.59773 22.1995C6.42239 22.2239 4.2522 22.0318 2.63003 21.6224C1.81796 21.4174 1.15193 21.16 0.69206 20.8543C0.23102 20.5477 0 20.2092 0 19.8435C4.70903e-05 19.5936 0.222773 19.2717 0.699347 19.0081C1.16651 18.7497 1.84666 18.5675 2.68029 18.5846ZM5.9202 17.2563C5.88438 17.3426 5.87391 17.4309 5.89784 17.5197C5.94215 17.6838 6.09032 17.7918 6.25693 17.865C6.59629 18.0139 7.1568 18.0813 7.78781 18.0884C9.0278 18.1024 10.6264 17.8828 11.5823 17.4927L12.9132 18.3543C12.331 18.6688 11.5674 18.9056 10.7309 19.0629C9.80587 19.2369 8.80097 19.3131 7.87275 19.296C6.94306 19.279 6.0977 19.1685 5.48923 18.9738C5.18446 18.8763 4.94762 18.7601 4.78939 18.6308C4.63253 18.5025 4.56374 18.3708 4.56374 18.2364C4.56374 18.0543 4.69969 17.8077 4.98565 17.5996C5.2174 17.431 5.53596 17.2976 5.9202 17.2563ZM5.13215 14.6725C5.07921 14.7565 5.0496 14.8436 5.04972 14.9336C5.05006 15.1303 5.19009 15.2758 5.3641 15.3789C5.54196 15.4843 5.7893 15.5671 6.07979 15.6311C6.37219 15.6955 6.71649 15.7423 7.09349 15.7717C8.57823 15.8874 10.6108 15.7342 12.0691 15.2731L13.272 16.0239C11.2208 16.7837 8.85488 16.9633 6.97464 16.8138C5.99727 16.7361 5.15814 16.5702 4.56724 16.355C4.27111 16.2471 4.04421 16.1294 3.89403 16.0094C3.74185 15.8878 3.68776 15.7803 3.68773 15.6933C3.68773 15.5924 3.73838 15.4755 3.84653 15.3497C3.95358 15.2253 4.10761 15.1034 4.28982 14.996C4.54879 14.8435 4.85177 14.7275 5.13215 14.6725ZM16.2458 11.8597C16.7546 11.819 17.218 11.9544 17.5526 12.2492C17.8855 12.5426 18.1046 13.006 18.1046 13.6493C18.1046 15.0622 17.1596 15.8858 16.18 16.3631C15.6915 16.6011 15.2015 16.7487 14.8328 16.8369C14.8112 16.8421 14.7899 16.8466 14.7692 16.8514C15.0079 16.6637 15.3139 16.4061 15.6199 16.0972C16.2678 15.4432 16.9485 14.5324 16.9485 13.5711C16.9484 13.1153 16.6788 12.7009 16.2727 12.4366C15.9997 12.2589 15.6614 12.1463 15.2894 12.1301C15.6094 11.9739 15.9367 11.8844 16.2458 11.8597ZM5.5003 11.9252C5.21755 12.0213 4.92822 12.1353 4.70746 12.2599C4.59748 12.3219 4.49807 12.39 4.42476 12.4643C4.35315 12.5368 4.29083 12.6313 4.29083 12.7443C4.29088 12.8546 4.37703 12.9197 4.43531 12.9528C4.50198 12.9906 4.59143 13.021 4.69341 13.0465C4.89945 13.0981 5.19107 13.1383 5.54276 13.1686C6.24819 13.2295 7.21734 13.2521 8.27909 13.2379C10.1892 13.2125 12.4138 13.0667 13.9601 12.8058C13.8004 12.9299 13.6162 13.0674 13.4396 13.1965C13.265 13.3242 13.1006 13.4419 12.9798 13.5277C12.9194 13.5705 12.8699 13.6053 12.8355 13.6295C12.823 13.6383 12.8124 13.6457 12.8041 13.6516C10.4925 14.1052 7.72278 14.3045 5.53046 14.2056C4.42903 14.1559 3.48108 14.0312 2.81222 13.8296C2.47713 13.7285 2.22114 13.6108 2.05156 13.4802C1.8833 13.3506 1.81308 13.2196 1.81308 13.0874C1.81314 12.8187 2.04805 12.5853 2.51143 12.3924C2.96224 12.2048 3.57112 12.0815 4.19006 12.0016C4.69907 11.9359 5.20885 11.901 5.63249 11.8818C5.58866 11.896 5.54443 11.9102 5.5003 11.9252ZM14.5554 3.83179C14.2044 4.06286 13.7341 4.38386 13.258 4.74332C12.7825 5.10231 12.2981 5.50196 11.9203 5.89026C11.7315 6.08435 11.567 6.27811 11.4434 6.46458C11.3207 6.64968 11.2324 6.83631 11.2069 7.01507C11.1569 7.36532 11.2439 7.6955 11.3813 8.00964C11.5171 8.32029 11.7109 8.63316 11.8806 8.93718C12.2267 9.55706 12.4925 10.1718 12.2128 10.903C11.956 11.5743 11.4145 11.9954 10.9247 12.2505C10.7707 12.3307 10.6228 12.3929 10.493 12.4417C10.5345 12.3929 10.5778 12.3406 10.6204 12.284C10.8472 11.9827 11.0826 11.5602 11.0946 11.0868L11.0938 10.9916C11.0816 10.6763 10.9655 10.3892 10.8104 10.1174C10.6566 9.84796 10.456 9.57934 10.2706 9.31196C9.89385 8.76857 9.56084 8.20199 9.61848 7.46501C9.75062 5.77923 11.1147 4.83567 12.4973 4.31015C13.1845 4.04897 13.8646 3.89596 14.3737 3.80842C14.4767 3.79071 14.5727 3.77592 14.6602 3.76323C14.6266 3.78512 14.5916 3.80792 14.5554 3.83179ZM11.4079 0C11.7677 0.809166 11.7785 1.53726 11.5838 2.2065C11.3274 3.08794 10.7106 3.88262 10.014 4.63261C9.66609 5.00722 9.30362 5.36541 8.9586 5.71808C8.61528 6.06898 8.29013 6.41357 8.02529 6.75431C7.4994 7.43094 7.18178 8.13054 7.48149 8.86202C8.00331 10.136 8.41344 10.9263 8.89175 11.7178C8.8556 11.69 8.81746 11.6618 8.77866 11.6314C8.39442 11.3308 7.8886 10.9052 7.40007 10.4053C6.91085 9.90466 6.44308 9.33351 6.13054 8.74192C5.81768 8.14976 5.66686 7.54985 5.78979 6.98358C5.92491 6.36292 6.39491 5.76714 7.03295 5.16432C7.67075 4.56168 8.44717 3.97734 9.1815 3.36154C9.90859 2.75181 10.5903 2.11401 11.0026 1.4214C11.2686 0.974532 11.4236 0.502047 11.4079 0Z" fill="#454545"/>
</svg>
