<svg width="24" height="24" viewBox="0 0 24 24" fill="none" xmlns="http://www.w3.org/2000/svg">
<path d="M1.38313 0H22.6194C23.3802 7.39459e-05 24 0.61969 24 1.38313V22.6194C23.9999 23.3802 23.3803 24 22.6169 24H1.38313C0.6198 24 0 23.3802 0 22.6169V1.38313C0 0.6198 0.6198 0 1.38313 0ZM10.6796 18.1242C10.6796 18.6692 10.575 18.9687 10.4199 19.1348C10.2681 19.2972 10.0349 19.3666 9.68348 19.3667C8.9951 19.3667 8.50566 18.9415 8.17083 18.3474L8.08878 18.2018L7.94562 18.2885L6.12448 19.3901L5.99935 19.4658L6.06175 19.5982C6.60908 20.7562 7.95052 22.0078 9.81905 22.0078C10.8371 22.0078 11.717 21.7368 12.343 21.1473C12.9708 20.5561 13.3204 19.6662 13.3204 18.477V10.6796H10.6796V18.1242ZM18.0538 10.6796C17.0325 10.6796 16.1818 11.0068 15.585 11.561C14.9877 12.1157 14.6545 12.8891 14.6545 13.76C14.6545 14.6964 14.9319 15.3987 15.4254 15.9536C15.8527 16.4344 16.4345 16.7961 17.1126 17.1084L17.409 17.2396L17.9604 17.4764C18.4683 17.699 18.8199 17.8675 19.048 18.0653C19.2619 18.2506 19.3667 18.4618 19.3667 18.7937C19.3667 19.0664 19.2653 19.2916 19.0715 19.4515C18.8744 19.6141 18.5658 19.722 18.133 19.722C17.1402 19.722 16.6668 19.0621 16.1925 18.286L16.1044 18.1422L15.9641 18.2357L14.2266 19.3939L14.1068 19.4737L14.1718 19.6023C14.5061 20.2627 14.9767 20.8655 15.6338 21.3031C16.2919 21.7414 17.1282 22.0078 18.1828 22.0078C19.2586 22.0078 20.2135 21.7286 20.9028 21.1786C21.5963 20.6253 22.0078 19.8078 22.0078 18.7665C22.0078 17.8077 21.7309 17.0998 21.1998 16.5298C20.6759 15.9673 19.9145 15.5502 18.9704 15.147L18.419 14.9097C17.9429 14.7029 17.628 14.5424 17.4299 14.3621C17.245 14.1938 17.1597 14.0058 17.1597 13.7169C17.1598 13.4919 17.2449 13.2989 17.3935 13.1611C17.5425 13.0229 17.7652 12.9315 18.0538 12.9315C18.3474 12.9315 18.5751 12.9924 18.7715 13.1228C18.9708 13.255 19.1522 13.468 19.3353 13.7961L19.4196 13.9469L19.5646 13.8534L21.2841 12.7471L21.413 12.6642L21.3373 12.5305C20.9611 11.8692 20.5065 11.4029 19.9564 11.1037C19.4072 10.805 18.7749 10.6796 18.0538 10.6796Z" fill="#454545"/>
</svg>
