<svg width="75" height="75" viewBox="0 0 75 75" fill="none" xmlns="http://www.w3.org/2000/svg">
<path d="M4.76465 0.5H70.2432C72.5891 0.500228 74.5 2.41071 74.5 4.76465V70.2432C74.4998 72.5891 72.5893 74.5 70.2354 74.5H4.76465C2.41105 74.5 0.5 72.589 0.5 70.2354V4.76465C0.5 2.41105 2.41105 0.5 4.76465 0.5ZM33.4287 56.3828C33.4287 58.0635 33.1063 58.9869 32.6279 59.499C32.1601 59.9996 31.441 60.2138 30.3574 60.2139C28.2349 60.2139 26.7258 58.903 25.6934 57.0713L25.4404 56.6221L24.999 56.8896L19.3838 60.2861L18.998 60.5195L19.1904 60.9277C20.878 64.4983 25.0141 68.3573 30.7754 68.3574C33.9144 68.3574 36.6273 67.5218 38.5576 65.7041C40.4933 63.8812 41.5713 61.1374 41.5713 57.4707V33.4287H33.4287V56.3828ZM56.166 33.4287C53.017 33.4288 50.3939 34.4376 48.5537 36.1465C46.7121 37.8568 45.6846 40.2415 45.6846 42.9268C45.6846 45.8138 46.5401 47.9792 48.0615 49.6904C49.3793 51.1726 51.173 52.2879 53.2637 53.251L54.1777 53.6553L55.8779 54.3857C57.4438 55.0719 58.5279 55.5915 59.2314 56.2012C59.8909 56.7727 60.2139 57.4238 60.2139 58.4473C60.2139 59.2882 59.9013 59.9825 59.3037 60.4756C58.696 60.9769 57.7446 61.3096 56.4102 61.3096C53.3489 61.3094 51.8892 59.2749 50.4268 56.8818L50.1553 56.4385L49.7227 56.7266L44.3652 60.2979L43.9961 60.5439L44.1963 60.9404C45.227 62.9766 46.6782 64.8353 48.7041 66.1846C50.7335 67.536 53.312 68.3574 56.5635 68.3574C59.8806 68.3574 62.8249 67.4964 64.9502 65.8008C67.0887 64.0946 68.3574 61.5739 68.3574 58.3633C68.3574 55.4072 67.5035 53.2245 65.8662 51.4668C64.2506 49.7324 61.903 48.4466 58.9922 47.2031L57.292 46.4717H57.291C55.823 45.834 54.8529 45.3391 54.2422 44.7832C53.6721 44.2642 53.4092 43.6846 53.4092 42.7939C53.4093 42.0999 53.6719 41.5049 54.1299 41.0801C54.5894 40.6539 55.2759 40.3721 56.166 40.3721C57.071 40.3721 57.7731 40.5599 58.3789 40.9619C58.9933 41.3697 59.5525 42.0264 60.1172 43.0381L60.377 43.5029L60.8242 43.2148L66.126 39.8037L66.5234 39.5479L66.29 39.1357C65.13 37.0967 63.7284 35.6589 62.0322 34.7363C60.339 33.8154 58.3892 33.4287 56.166 33.4287Z" fill="url(#paint0_linear_85_25)" stroke="black"/>
<defs>
<linearGradient id="paint0_linear_85_25" x1="37.5" y1="0" x2="37.5" y2="75" gradientUnits="userSpaceOnUse">
<stop stop-color="#454545"/>
<stop offset="1" stop-color="#1A1A1A"/>
</linearGradient>
</defs>
</svg>
