<svg width="24" height="24" viewBox="0 0 24 24" fill="none" xmlns="http://www.w3.org/2000/svg">
<path d="M20.6071 0C19.8461 0 19.1164 0.30274 18.5783 0.841619C18.0402 1.3805 17.7379 2.11138 17.7379 2.87347C17.7379 3.63555 18.0402 4.36643 18.5783 4.90531C19.1164 5.44419 19.8461 5.74694 20.6071 5.74694C21.3681 5.74694 22.0979 5.44419 22.6359 4.90531C23.174 4.36643 23.4763 3.63555 23.4763 2.87347C23.4763 2.11138 23.174 1.3805 22.6359 0.841619C22.0979 0.30274 21.3681 0 20.6071 0ZM11.5756 0.00714285C11.3435 0.0160245 11.1104 0.0311184 10.8756 0.0530611C10.2037 0.116277 9.53418 0.235731 8.88678 0.409184L9.15578 1.41939C9.74733 1.26108 10.3584 1.15085 10.9724 1.09286C11.1874 1.073 11.402 1.05886 11.6143 1.05102L11.5756 0.00714285ZM14.2889 0.217347L14.0903 1.24388C14.9046 1.40166 15.7017 1.65379 16.4592 1.99286L16.8851 1.03877C16.0546 0.667315 15.181 0.3908 14.2889 0.217347ZM6.35482 1.40918C5.55459 1.83655 4.80179 2.3574 4.11632 2.95612L4.80205 3.74285C5.42752 3.19585 6.11613 2.72138 6.84592 2.33163L6.35482 1.40918ZM11.9995 3.13469C7.10934 3.13469 3.13106 7.11888 3.13106 12.0163C3.13106 16.9138 7.10934 20.898 11.9995 20.898C16.8897 20.898 20.8679 16.9138 20.8679 12.0163C20.8679 7.11888 16.8897 3.13469 11.9995 3.13469ZM2.28232 4.96736C1.74865 5.70557 1.29821 6.50336 0.944512 7.33981L1.90533 7.74694C2.22824 6.9831 2.63974 6.25456 3.12698 5.58061L2.28232 4.96736ZM14.6078 6.26938C16.0482 6.26938 17.2162 7.43914 17.2162 8.88163C17.2162 10.3241 16.0482 11.4939 14.6078 11.4939C13.1675 11.4939 11.9995 10.3241 11.9995 8.88163C11.9995 7.43914 13.1675 6.26938 14.6078 6.26938ZM22.6999 6.57142L21.7696 7.0449C22.1458 7.78522 22.4359 8.56938 22.6347 9.37552L23.6475 9.12653C23.4299 8.24307 23.1115 7.38278 22.6999 6.57142ZM0.176268 9.9551C0.0594138 10.6285 0 11.3176 0 12.0031C0 12.2256 0.0058199 12.4493 0.0183401 12.6745L1.06067 12.6163C1.04919 12.411 1.04334 12.2063 1.04334 12.0031C1.04334 11.3772 1.09791 10.7481 1.20433 10.1337L0.176268 9.9551ZM23.945 10.8898L22.9067 10.9877C22.9396 11.3326 22.9566 11.6832 22.9566 12.0296C22.9566 12.5113 22.924 12.998 22.8609 13.4765L23.895 13.6143C23.9644 13.0908 23.9995 12.5573 24 12.0296C24 11.6508 23.9804 11.267 23.945 10.8898ZM6.26109 11.4939H7.30445V15.6735H9.39114V16.7184H6.26109V11.4939ZM16.0802 12.1653C17.087 12.1653 17.7379 12.8216 17.7379 13.8367V16.7184H16.6946V16.6316C16.2678 16.7795 15.8378 16.8265 15.6359 16.8265C14.928 16.8265 14.1942 16.3223 14.1942 15.4775C14.1942 14.441 15.2427 14.1529 15.9355 13.9622C16.2104 13.8865 16.5369 13.7927 16.6762 13.6918C16.6345 13.3643 16.4557 13.2102 16.0802 13.2102C15.8652 13.2102 15.422 13.2982 15.422 13.5694H14.3786C14.3786 12.6478 15.2345 12.1653 16.0802 12.1653ZM9.9128 12.5388H10.9562V15.4082C10.9562 15.6684 11.1671 15.8796 11.4269 15.8796H11.5573C12.0889 15.8796 12.5212 15.4472 12.5212 14.9153V12.5388H13.5645V14.9153V16.7184H12.5212V16.6674C12.2337 16.8267 11.9084 16.9245 11.5573 16.9245H11.4269C10.5917 16.9245 9.9128 16.2441 9.9128 15.4082V12.5388ZM16.6946 14.8225C16.536 14.8757 16.3743 14.924 16.2116 14.9684C15.5522 15.1507 15.2375 15.2727 15.2375 15.4775C15.2375 15.7738 15.6317 15.7816 15.6359 15.7816C15.9719 15.7816 16.4775 15.6457 16.6946 15.4827V14.8225ZM1.47536 15.0714L0.472765 15.3602C0.724211 16.2337 1.07676 17.0809 1.52019 17.8755L2.43108 17.3663C2.02626 16.6406 1.70489 15.8687 1.47536 15.0714ZM22.2536 15.8888C21.9604 16.6651 21.5777 17.4098 21.1165 18.101L21.9846 18.6816C22.4891 17.9241 22.9084 17.1082 23.2297 16.2582L22.2536 15.8888ZM3.87994 19.3847L3.10762 20.0867C3.71798 20.7602 4.40605 21.3644 5.15152 21.8837L5.74758 21.0265C5.06627 20.5511 4.4376 19.9996 3.87994 19.3847ZM19.5128 20.001C18.9082 20.5721 18.2401 21.0744 17.526 21.4929L18.0527 22.3949C18.8352 21.9367 19.5671 21.3871 20.2291 20.7612L19.5128 20.001ZM7.93411 22.2071L7.54694 23.1765C8.39101 23.5156 9.27328 23.757 10.1716 23.8949L10.3306 22.8633C9.51101 22.7373 8.70461 22.5164 7.93411 22.2071ZM15.2538 22.4949C14.5344 22.718 13.7841 22.8677 13.0245 22.9398L12.8085 22.9582L12.8941 24L13.1233 23.9796C13.9538 23.9007 14.7743 23.7374 15.5626 23.4929L15.2538 22.4949Z" fill="#454545"/>
</svg>
