<svg width="24" height="24" viewBox="0 0 24 24" fill="none" xmlns="http://www.w3.org/2000/svg">
<path d="M20.4112 6.87415C21.2406 6.87418 22.132 7.20062 22.8183 7.99505C23.5055 8.79049 24 10.0707 24 12C24 13.9293 23.5055 15.2095 22.8183 16.005C22.132 16.7994 21.2406 17.1258 20.4112 17.1258H12.3668V17.9788H17.6545V20.4112C17.6544 21.0637 17.4284 21.9551 16.6542 22.6843C15.8803 23.4133 14.5374 24 12.2645 24C9.04742 24 7.40319 22.1462 7.40309 20.4112V14.1151C7.40312 13.3062 8.01843 12.6911 8.82739 12.6911H15.1726C16.4251 12.6911 17.4502 11.666 17.4502 10.4135V6.87415H20.4112ZM14.644 19.2409C13.972 19.2409 13.4243 19.7886 13.4243 20.4606C13.4243 21.1327 13.972 21.6803 14.644 21.6803C15.316 21.6803 15.8637 21.1326 15.8637 20.4606C15.8637 19.7886 15.316 19.241 14.644 19.2409ZM11.7355 0C14.9526 0 16.5968 1.8538 16.5969 3.58878V10.4135C16.5969 11.2225 15.9816 11.8378 15.1726 11.8378H8.82739C7.57492 11.8378 6.54989 12.8626 6.54983 14.1151V17.1258H3.58878C2.75942 17.1258 1.86802 16.7994 1.18169 16.005C0.494478 15.2095 0 13.9293 0 12C0 10.0707 0.494478 8.79049 1.18169 7.99505C1.86802 7.20062 2.75942 6.87418 3.58878 6.87415H11.6332V6.02121H6.34553V3.58878C6.34557 2.93626 6.57156 2.04489 7.34575 1.31567C8.11972 0.586696 9.46258 1.16757e-05 11.7355 0ZM9.35601 2.31968C8.68398 2.31971 8.13629 2.86734 8.13629 3.53938C8.13629 4.21142 8.68398 4.75904 9.35601 4.75907C10.028 4.75907 10.5757 4.21142 10.5757 3.53938C10.5757 2.86733 10.028 2.31968 9.35601 2.31968Z" fill="#454545"/>
</svg>
