<svg width="75" height="75" viewBox="0 0 75 75" fill="none" xmlns="http://www.w3.org/2000/svg">
<path d="M63.4346 21.6953C65.9918 21.6954 68.7403 22.7019 70.8564 25.1514C72.9754 27.604 74.5 31.5514 74.5 37.5C74.5 43.4486 72.9754 47.396 70.8564 49.8486C68.7403 52.2981 65.9918 53.3046 63.4346 53.3047H38.6309V55.9346H54.9346V63.4346C54.9345 65.4465 54.2377 68.1949 51.8506 70.4434C49.4642 72.691 45.3237 74.5 38.3154 74.5C28.3962 74.5 23.3265 68.7841 23.3262 63.4346V44.0215C23.3263 41.5273 25.2235 39.6309 27.7178 39.6309H47.2822C51.1441 39.6309 54.3047 36.4702 54.3047 32.6084V21.6953H63.4346ZM45.6523 59.8262C43.5802 59.8262 41.8916 61.5148 41.8916 63.5869C41.8916 65.6591 43.5802 67.3477 45.6523 67.3477C47.7244 67.3476 49.4131 65.659 49.4131 63.5869C49.4131 61.5148 47.7244 59.8263 45.6523 59.8262ZM36.6846 0.5C46.6038 0.5 51.6735 6.21588 51.6738 11.5654V32.6084C51.6738 35.1027 49.7765 37 47.2822 37H27.7178C23.856 37 20.6955 40.1598 20.6953 44.0215V53.3047H11.5654C9.0082 53.3046 6.25973 52.2981 4.14355 49.8486C2.02464 47.396 0.5 43.4486 0.5 37.5C0.5 31.5514 2.02464 27.604 4.14355 25.1514C6.25973 22.7019 9.0082 21.6954 11.5654 21.6953H36.3691V19.0654H20.0654V11.5654C20.0655 9.55347 20.7623 6.80507 23.1494 4.55664C25.5358 2.30898 29.6763 0.500036 36.6846 0.5ZM29.3477 7.65234C27.2756 7.65244 25.5869 9.34097 25.5869 11.4131C25.5869 13.4852 27.2756 15.1737 29.3477 15.1738C31.4198 15.1738 33.1084 13.4852 33.1084 11.4131C33.1084 9.34092 31.4198 7.65234 29.3477 7.65234Z" fill="url(#paint0_linear_85_30)" stroke="black"/>
<defs>
<linearGradient id="paint0_linear_85_30" x1="37.5" y1="0" x2="37.5" y2="75" gradientUnits="userSpaceOnUse">
<stop stop-color="#454545"/>
<stop offset="1" stop-color="#1A1A1A"/>
</linearGradient>
</defs>
</svg>
