<svg width="22" height="24" viewBox="0 0 22 24" fill="none" xmlns="http://www.w3.org/2000/svg">
<path d="M9.96719 0.266019C10.6041 -0.0886729 11.3959 -0.0886729 12.0328 0.266019L20.9597 5.25853L20.96 5.25879C21.6022 5.6171 22 6.28851 22 7.00643V16.992C22 17.7099 21.6022 18.3813 20.96 18.7396L20.9597 18.7399L12.0328 23.7324C11.7135 23.9106 11.3568 24 11 24C10.6432 24 10.2865 23.9106 9.96719 23.7324L1.04031 18.7399L1.04005 18.7396C0.397824 18.3813 0 17.7099 0 16.992V7.00643C0 6.28851 0.397824 5.6171 1.04005 5.25879L1.04031 5.25853L9.96693 0.26576L9.96719 0.266019ZM11 5.53724C7.4189 5.53724 4.50602 8.43576 4.50602 11.9992C4.50602 15.5626 7.4189 18.4612 11 18.4612C13.0463 18.4612 14.9365 17.5165 16.1645 15.9076L16.2554 15.7883L16.1252 15.7136L13.8018 14.3763L13.7096 14.3233L13.6377 14.4016C12.9647 15.1348 12.0082 15.5599 11 15.5599C9.02726 15.5599 7.42169 13.9622 7.42169 11.9992C7.42169 10.0362 9.02726 8.43853 11 8.43853C12.0082 8.43853 12.9647 8.86365 13.6377 9.59683L13.7096 9.67511L13.8018 9.62207L16.1252 8.28476L16.2554 8.21007L16.1645 8.0908C14.9365 6.4819 13.0463 5.53724 11 5.53724ZM15.1084 11.3398H14.0482V12.6586H15.1084V13.7136H16.4337V12.6586H17.494V11.3398H16.4337V10.2848H15.1084V11.3398ZM18.8193 11.3398H17.759V12.6586H18.8193V13.7136H20.1446V12.6586H21.2048V11.3398H20.1446V10.2848H18.8193V11.3398Z" fill="#454545"/>
</svg>
